/* XPM */
static char * floor_xpm[] = {
"64 64 4 1",
" 	c #181818",
".	c #1E1E1E",
"+	c #242424",
"@	c #2B2B2B",
"+..............@@............. @@.+++..+...+...@@++++++++++++++@",
".              @+              @+ .     .      @@ .............+",
".            . ++   .          @@ .  ....... . @@ ..+..........+",
".              +@              @@ ... ...   .. +@............ .+",
".              ++              +@ . .  .  .  . @@.... ....... .+",
".              @+              +@ . ..   ..  . @@ ............ .",
".              +@              +@ .  .  .    . +@ ..............",
".              ++              +@ . . .   . .  @@ ....... .+...+",
".              ++              +@   ..  ..  .. @@...............",
".              @+              ++ .  ..  .   . @@ ..............",
".              ++   .          +@ .   .. ..    @@...+...........",
". .       .    ++              +@ .. . .. .    @@..... .... ....",
".              +@              +@ .      ..  . @@... ...........",
".              ++            . +@ ..  .  .. .. @@...............",
".              ++              ++  .           +@    .. .  . . .",
"@+++++++++++@++@@++++++++++++++@@+@@@@@@@@@@@@@@@@@@@@@@@@@@@@@@",
"@@@@@@@@@@@+@++@@++++++@@@@@@@@@@@@@@@@@@@@@@@@@@@@@@@@@@@@@@@@@",
".... . @+              @@ .+.......... @@ ..........+. @@ . .   ",
".......@+              +@..+++..+++.+..@@.++.++..+..+..@@ +...+.",
"... ...@+              +@.+.......... .@@.....+......+.@@ ......",
".......@@              @@.........+.+. @@....+...+...+.@@... ...",
"..++...@+              +@ .....+.+.... @@....++.+....+.@@ +.....",
".......@+              +@.+...+......+ @@.+......+.....@@.......",
".......@+              +@...+......++..@@.+...+...+....@@.......",
"...... @+              +@..............@@...+....+...+.@@..++...",
".....+.@+              +@..+...+....+..@@.+.......+..+.@@ ......",
".+.... @+              +@.+.++.......+.@@.....+...++.+.@@ ......",
".......@+ .       .    +@.......... .+.@@.+.....+......@@ ......",
".....+.@@              +@.+.........+. @@..+....+...++.@@. .....",
"..++...@+              +@.+...++.....+.@@.+.++++..+...+@@..+..++",
"... .. @+              +@ ....... .... @@ .......  ....@@ ......",
"@@@@@@@@@++++++@+++++++@@@@@@@@@@@@@@@@@@@@@@@@@@@@@@@@@@+@@@@@@",
"@@@@@@@@@@@@@@@@@@@@@@+@+@++@++@@+@++++@@++@@++@@+++@+@@@+@@@@+@",
"+ ..   ..   .. @+              ++              @+               ",
"+...+.....+....@+         .. . ++   .          @+ .            .",
"+..... ......  @@ .    .       +@              ++     . .      .",
"+. .. .......  @@      .       @+              @+              .",
"+ ............ @+   .          ++              ++ .       ..   .",
"+............. @+ .            +@              ++            . .",
"+ ....... .+.. @@ .  .         ++          .   ++              .",
"+..............@+            . ++              ++  ..          .",
"+............. @+    .       . ++              ++              .",
"+............. @@ .      ..    @+   .          +@        .     .",
"+..... ....  ..@@ .    .  .    @+              +@   .          .",
"+... ......... @@  .     .     +@              +@            ...",
"+............. @@  .        .. @+              +@      .  ..   .",
"+    ..    .   ++              ++              ++              .",
"@@@@@@@@@@@@@@@@@++@++@++++++++@@++++++++++++++@@++@@+++++++@++@",
"@++@@++@@@@@@@@@@@@@@@@@@@+@@@+@@@@@@@+@@@@@@@@@@@@@@@@@@@@@@@++",
"       @@ . .  ....  . @+              @@ ..   .....   @+       ",
"... .  @@ +......+.....@+ . . . ..   . +@.. ......+..+.@+ ....  ",
"    .  @@ ......... ...@@  .    .    . @@.+....+.......@@ .     ",
" ..    @@... ..........@@ .            @@....+.+... ...@@       ",
" ..  . @@ +.......++...@+ .     . .... @@..+...........@@  . . .",
"     . +@............+.@+ .  .  . . .. @@.+........... @@ .   . ",
"   ..  @@..............@+ .            @@..............@@    .  ",
"     . +@..++......... @@  ..    .. .  @@............+.@@   .   ",
"  .  . +@ ...........+.@+ .      .   . @@....+.......+.@@ .. . .",
"     . +@ .......+.... @@ .  .. .. .   @@.+.......+....@+ . ..  ",
"     . @@ .+...........@@  . .         @@ +...+...+....@@       ",
" .  .  +@. ..........+.@@  .   .   . ..@@............. @@ .     ",
" . . . +@..........+...@@  . ...  ...  +@..+.....+.....@+ .   ..",
"       +@..+...........@@ ..     .  .  +@..+. .........@@       ",
".......@@.++++.++.++++.@@ .....+.......@@.+++++++++++..@@......."};
