/* XPM */
static char * collectible_xpm[] = {
"64 64 582 2",
"  	c #FFFFFF",
". 	c #FEFEFE",
"+ 	c #FDFDFD",
"@ 	c #FAFAFA",
"# 	c #F7F7F7",
"$ 	c #D3D3D3",
"% 	c #B7B7B7",
"& 	c #9B9B9B",
"* 	c #909090",
"= 	c #929292",
"- 	c #A9A9A9",
"; 	c #C1C1C1",
"> 	c #ECECEC",
", 	c #FBFBFB",
"' 	c #838383",
") 	c #4D4D4D",
"! 	c #353535",
"~ 	c #222222",
"{ 	c #2D2D2D",
"] 	c #2F2F2F",
"^ 	c #2B2B2B",
"/ 	c #303030",
"( 	c #4C4C4C",
"_ 	c #888888",
": 	c #DBDBDB",
"< 	c #FCFCFC",
"[ 	c #828282",
"} 	c #373737",
"| 	c #313131",
"1 	c #363636",
"2 	c #383838",
"3 	c #343434",
"4 	c #3D3D3D",
"5 	c #404040",
"6 	c #A6A6A6",
"7 	c #E8E8E8",
"8 	c #585858",
"9 	c #2C2C2C",
"0 	c #333333",
"a 	c #2E2E2E",
"b 	c #323232",
"c 	c #393939",
"d 	c #8E8E8E",
"e 	c #AFAFAF",
"f 	c #292929",
"g 	c #454545",
"h 	c #3C3C3C",
"i 	c #3B3B3B",
"j 	c #3F3F3F",
"k 	c #A8A8A8",
"l 	c #F6F6F6",
"m 	c #E7E7E7",
"n 	c #A1A1A1",
"o 	c #424242",
"p 	c #464646",
"q 	c #3E3E3E",
"r 	c #282828",
"s 	c #D2D2D2",
"t 	c #E0E0E0",
"u 	c #666666",
"v 	c #686868",
"w 	c #444444",
"x 	c #4A4A4A",
"y 	c #5A5A5A",
"z 	c #1F1F1F",
"A 	c #787878",
"B 	c #BDBDBD",
"C 	c #1D1D1D",
"D 	c #414141",
"E 	c #484848",
"F 	c #818181",
"G 	c #EEEEEE",
"H 	c #747474",
"I 	c #181818",
"J 	c #FEFFFB",
"K 	c #FFFDFE",
"L 	c #FFFDFF",
"M 	c #FDFFFE",
"N 	c #FBFFFC",
"O 	c #FFFFFD",
"P 	c #F6FAF9",
"Q 	c #FBFFFF",
"R 	c #F4FFFD",
"S 	c #A89DA3",
"T 	c #201913",
"U 	c #42453E",
"V 	c #433848",
"W 	c #433B46",
"X 	c #454440",
"Y 	c #304040",
"Z 	c #4F4D4E",
"` 	c #747273",
" .	c #6E6C6D",
"..	c #F2F1ED",
"+.	c #FEFFFA",
"@.	c #F2FBF6",
"#.	c #464E51",
"$.	c #161824",
"%.	c #232323",
"&.	c #FFF9F9",
"*.	c #FCFFFF",
"=.	c #F9FDFC",
"-.	c #FFF8FD",
";.	c #FFFAFF",
">.	c #FEFFFF",
",.	c #F8F7FF",
"'.	c #FFF9FF",
").	c #B2AEAB",
"!.	c #263129",
"~.	c #324644",
"{.	c #2F3334",
"].	c #2F4133",
"^.	c #44413C",
"/.	c #3B3235",
"(.	c #534F50",
"_.	c #17161B",
":.	c #2A2D32",
"<.	c #45494A",
"[.	c #EDECEA",
"}.	c #FFF8F5",
"|.	c #A39896",
"1.	c #160C0B",
"2.	c #1E1E1E",
"3.	c #1C1C1C",
"4.	c #242424",
"5.	c #7E7E7E",
"6.	c #F9F9F9",
"7.	c #FFFEFF",
"8.	c #F8FFFD",
"9.	c #F7FFFB",
"0.	c #FCFFF8",
"a.	c #FCFFF6",
"b.	c #FFFFF8",
"c.	c #F2E2EC",
"d.	c #557069",
"e.	c #623730",
"f.	c #D22C38",
"g.	c #5B3E30",
"h.	c #303433",
"i.	c #393228",
"j.	c #51534E",
"k.	c #201C1D",
"l.	c #201D24",
"m.	c #0D0E13",
"n.	c #DAD8DB",
"o.	c #FDF5F3",
"p.	c #BABBB3",
"q.	c #0C2112",
"r.	c #1A1A1A",
"s.	c #202020",
"t.	c #272727",
"u.	c #606060",
"v.	c #F8F8F8",
"w.	c #FFFBFF",
"x.	c #F8FEFC",
"y.	c #FFFAFE",
"z.	c #F7FFFF",
"A.	c #FFF3F9",
"B.	c #FCFDF8",
"C.	c #E8FDF6",
"D.	c #FBFFFB",
"E.	c #A29181",
"F.	c #EC282A",
"G.	c #FB3623",
"H.	c #EF2B37",
"I.	c #513331",
"J.	c #27342B",
"K.	c #4B4B43",
"L.	c #121C14",
"M.	c #222627",
"N.	c #281D23",
"O.	c #EEE5EA",
"P.	c #EAF3F0",
"Q.	c #A9B3B2",
"R.	c #1E1B22",
"S.	c #191919",
"T.	c #1B1B1B",
"U.	c #141414",
"V.	c #FFFAFD",
"W.	c #F9FDFE",
"X.	c #FFFCFF",
"Y.	c #FBF7FF",
"Z.	c #FFF6FF",
"`.	c #F8FFFF",
" +	c #FFE2DD",
".+	c #F29E93",
"++	c #FC3436",
"@+	c #FF302B",
"#+	c #E53D22",
"$+	c #F5301D",
"%+	c #C22423",
"&+	c #2F2327",
"*+	c #595053",
"=+	c #1B0A12",
"-+	c #0B0002",
";+	c #61605E",
">+	c #EFFAF2",
",+	c #E2E8E4",
"'+	c #9C979D",
")+	c #170B19",
"!+	c #8F8F8F",
"~+	c #B8B8B8",
"{+	c #A5A5A5",
"]+	c #FBF9FA",
"^+	c #F9FFFF",
"/+	c #FAFFFB",
"(+	c #F7FFF1",
"_+	c #FDB5A7",
":+	c #F26760",
"<+	c #FB393A",
"[+	c #FA1D26",
"}+	c #F33221",
"|+	c #ED301D",
"1+	c #F02F26",
"2+	c #E52613",
"3+	c #FA2622",
"4+	c #7C1A17",
"5+	c #3D4645",
"6+	c #857A80",
"7+	c #564950",
"8+	c #C5C7C4",
"9+	c #EEF8EF",
"0+	c #EFEFE7",
"a+	c #524D4A",
"b+	c #141517",
"c+	c #171717",
"d+	c #262626",
"e+	c #626262",
"f+	c #494949",
"g+	c #8A8A8A",
"h+	c #F8FFFC",
"i+	c #F7FCF8",
"j+	c #F1FFF4",
"k+	c #FFBCB3",
"l+	c #FF191F",
"m+	c #FD2D11",
"n+	c #F8341E",
"o+	c #F8392F",
"p+	c #E9392A",
"q+	c #F23223",
"r+	c #E73324",
"s+	c #D73125",
"t+	c #DE271F",
"u+	c #EF251B",
"v+	c #531F14",
"w+	c #655848",
"x+	c #C9CFC5",
"y+	c #EEE4E5",
"z+	c #DECDD3",
"A+	c #696967",
"B+	c #191A15",
"C+	c #2D1D1E",
"D+	c #FFFBFB",
"E+	c #FFF8FF",
"F+	c #FAFDFF",
"G+	c #FCF2E9",
"H+	c #F96F6D",
"I+	c #FF352F",
"J+	c #F32A1A",
"K+	c #F32A22",
"L+	c #E63128",
"M+	c #E9231A",
"N+	c #D6281F",
"O+	c #E02925",
"P+	c #D7280B",
"Q+	c #E82523",
"R+	c #A01210",
"S+	c #531716",
"T+	c #383A37",
"U+	c #222D31",
"V+	c #1C141F",
"W+	c #262128",
"X+	c #152421",
"Y+	c #FFF8FC",
"Z+	c #F4FFFA",
"`+	c #FFF5FF",
" @	c #EDFFFD",
".@	c #FFFFED",
"+@	c #FF6072",
"@@	c #F6271F",
"#@	c #F42E21",
"$@	c #EB2D1D",
"%@	c #DF281A",
"&@	c #E02A1F",
"*@	c #E3281F",
"=@	c #DB1F13",
"-@	c #DB200F",
";@	c #E52412",
">@	c #F3331C",
",@	c #FA3121",
"'@	c #CF1D19",
")@	c #791B19",
"!@	c #332522",
"~@	c #1E2629",
"{@	c #1F1E26",
"]@	c #252525",
"^@	c #D6D6D6",
"/@	c #FFFCFD",
"(@	c #F8FFFB",
"_@	c #FCF5FC",
":@	c #F5FFF8",
"<@	c #FFF2E2",
"[@	c #FF786B",
"}@	c #EA3F35",
"|@	c #EC2319",
"1@	c #EA2012",
"2@	c #DC2915",
"3@	c #CC2B17",
"4@	c #D43122",
"5@	c #DB2A22",
"6@	c #E42632",
"7@	c #D62A1E",
"8@	c #D92E12",
"9@	c #EF2815",
"0@	c #CC1F18",
"a@	c #622312",
"b@	c #1D2412",
"c@	c #221817",
"d@	c #151515",
"e@	c #0E0E0E",
"f@	c #B4B4B4",
"g@	c #FDFEFF",
"h@	c #FCFFFA",
"i@	c #F9F8FD",
"j@	c #EEFFFD",
"k@	c #FCFCFA",
"l@	c #FFD6D5",
"m@	c #EE8486",
"n@	c #F75B5C",
"o@	c #DA2824",
"p@	c #D62015",
"q@	c #DB2210",
"r@	c #DA200B",
"s@	c #E02214",
"t@	c #E32210",
"u@	c #EA2111",
"v@	c #D21B15",
"w@	c #851811",
"x@	c #321710",
"y@	c #121615",
"z@	c #1A1720",
"A@	c #111111",
"B@	c #0A0A0A",
"C@	c #161616",
"D@	c #3A3A3A",
"E@	c #969696",
"F@	c #FFFFFA",
"G@	c #FEFDF9",
"H@	c #F5FEFD",
"I@	c #FEFEFF",
"J@	c #F6FCF8",
"K@	c #F8FFF8",
"L@	c #BFBDB1",
"M@	c #5B3834",
"N@	c #742E2E",
"O@	c #852725",
"P@	c #922923",
"Q@	c #87240D",
"R@	c #892213",
"S@	c #7A1815",
"T@	c #411411",
"U@	c #0E1410",
"V@	c #0A1214",
"W@	c #130E12",
"X@	c #05150B",
"Y@	c #0D0D0D",
"Z@	c #060606",
"`@	c #0B0B0B",
" #	c #2A2A2A",
".#	c #8B8B8B",
"+#	c #FBFDF8",
"@#	c #FFFDFB",
"##	c #FFF8F8",
"$#	c #F9FAF2",
"%#	c #B7B9B4",
"&#	c #2F3437",
"*#	c #212E34",
"=#	c #24353C",
"-#	c #202F32",
";#	c #122020",
">#	c #222828",
",#	c #222021",
"'#	c #111D19",
")#	c #061B14",
"!#	c #101415",
"~#	c #131114",
"{#	c #0E100F",
"]#	c #100A0A",
"^#	c #FFFEFA",
"/#	c #F1FFF7",
"(#	c #F2FDF5",
"_#	c #E5E2ED",
":#	c #46373C",
"<#	c #352526",
"[#	c #382E2D",
"}#	c #2E2A29",
"|#	c #251F1F",
"1#	c #291F1E",
"2#	c #161A1B",
"3#	c #1D191A",
"4#	c #251619",
"5#	c #281215",
"6#	c #1E0F12",
"7#	c #0D1114",
"8#	c #0B1218",
"9#	c #18101F",
"0#	c #212121",
"a#	c #7B7B7B",
"b#	c #F3FFFB",
"c#	c #F5FFFE",
"d#	c #F5FEF9",
"e#	c #FAFFFA",
"f#	c #FEFFFD",
"g#	c #8B868A",
"h#	c #31322C",
"i#	c #33342C",
"j#	c #36312D",
"k#	c #2A2220",
"l#	c #231D1D",
"m#	c #1D1916",
"n#	c #201010",
"o#	c #171312",
"p#	c #190C13",
"q#	c #180910",
"r#	c #0D1110",
"s#	c #141613",
"t#	c #181713",
"u#	c #0D1A11",
"v#	c #FFFEFD",
"w#	c #F8FCFB",
"x#	c #FDFDFF",
"y#	c #FCFAFF",
"z#	c #F9FCF3",
"A#	c #50554E",
"B#	c #2E3430",
"C#	c #393A3C",
"D#	c #342E38",
"E#	c #3B2F39",
"F#	c #30272A",
"G#	c #27221F",
"H#	c #221715",
"I#	c #1B1515",
"J#	c #121816",
"K#	c #151918",
"L#	c #1E1516",
"M#	c #1A1613",
"N#	c #171614",
"O#	c #211219",
"P#	c #F5F5F5",
"Q#	c #E4E4E4",
"R#	c #3C3A3B",
"S#	c #3B393A",
"T#	c #343233",
"U#	c #302E2F",
"V#	c #2A2122",
"W#	c #211B1B",
"X#	c #1D1717",
"Y#	c #1C1817",
"Z#	c #1A1917",
"`#	c #1A1A18",
" $	c #1C1C1A",
".$	c #1F211E",
"+$	c #AEAEAE",
"@$	c #F3F3F3",
"#$	c #DDDDDD",
"$$	c #454344",
"%$	c #424041",
"&$	c #403E3F",
"*$	c #353334",
"=$	c #2F292B",
"-$	c #282425",
";$	c #242021",
">$	c #211F20",
",$	c #CECECE",
"'$	c #EFEFEF",
")$	c #F2F2F2",
"!$	c #DFDFDF",
"~$	c #3D3B3C",
"{$	c #363435",
"]$	c #2B292A",
"^$	c #262425",
"/$	c #252324",
"($	c #DCDCDC",
"_$	c #F1F1F1",
":$	c #F4F4F4",
"<$	c #505050",
"[$	c #979797",
"}$	c #D0D0D0",
"|$	c #E2E2E2",
"1$	c #F0F0F0",
"2$	c #7F7F7F",
"3$	c #292B2A",
"4$	c #252726",
"5$	c #222423",
"6$	c #C9C9C9",
"7$	c #E5E5E5",
"8$	c #CCCCCC",
"9$	c #373938",
"0$	c #2C2E2D",
"a$	c #2D2F2E",
"b$	c #CDCDCD",
"c$	c #E6E6E6",
"d$	c #E3E3E3",
"e$	c #393B3A",
"f$	c #2E302F",
"g$	c #343635",
"h$	c #E9E9E9",
"i$	c #EAEAEA",
"j$	c #C6C6C6",
"k$	c #B1B1B1",
"l$	c #6D6D6D",
"m$	c #323433",
"n$	c #363837",
"o$	c #2F3130",
"p$	c #302E31",
"q$	c #2D2B2E",
"r$	c #29272A",
"s$	c #262427",
"t$	c #242426",
"u$	c #232325",
"v$	c #222224",
"w$	c #212123",
"x$	c #707070",
"y$	c #959595",
"z$	c #BEBEBE",
"A$	c #D9D9D9",
"B$	c #EDEDED",
"C$	c #DADADA",
"D$	c #BCBCBC",
"E$	c #ADADAD",
"F$	c #9D9D9D",
"G$	c #6E6E6E",
"H$	c #515151",
"I$	c #9C9C9C",
"J$	c #B3B3B3",
"K$	c #D4D4D4",
"L$	c #9F9F9F",
"M$	c #5B5B5B",
"N$	c #636363",
"O$	c #9E9E9E",
"P$	c #C3C3C3",
"Q$	c #949494",
"R$	c #5C5C5C",
"S$	c #4F4F4F",
"T$	c #565656",
"U$	c #696969",
"V$	c #7C7C7C",
"W$	c #A4A4A4",
"X$	c #B6B6B6",
"Y$	c #E1E1E1",
"Z$	c #C8C8C8",
"`$	c #797979",
" %	c #6A6A6A",
".%	c #595959",
"+%	c #616161",
"@%	c #6B6B6B",
"#%	c #848484",
"$%	c #8D8D8D",
"%%	c #A0A0A0",
"&%	c #AAAAAA",
"*%	c #C0C0C0",
"=%	c #D5D5D5",
"-%	c #BFBFBF",
";%	c #989898",
">%	c #808080",
",%	c #858585",
"'%	c #A3A3A3",
")%	c #B0B0B0",
"!%	c #D1D1D1",
"~%	c #EBEBEB",
"{%	c #D8D8D8",
"]%	c #CBCBCB",
"^%	c #B5B5B5",
"/%	c #ACACAC",
"(%	c #A7A7A7",
"_%	c #A2A2A2",
":%	c #B2B2B2",
"<%	c #CFCFCF",
"[%	c #C4C4C4",
"}%	c #C2C2C2",
"|%	c #D7D7D7",
"1%	c #DEDEDE",
"                                                                                                                                ",
"                                                                                                                                ",
"                                                                                                                                ",
"                                                                                                                                ",
"                                                                                                                                ",
"                                                                                                                                ",
"                                                                                                                                ",
"                                                                                                                                ",
"                                                                                                                                ",
"                                                                                                                                ",
"                                . . .                                                                                           ",
"                                . . .                                                                                           ",
"                                . .                                                                                             ",
"                                                . . . . . . . .                                                                 ",
"                                          . . . + + + + + + + +                                                                 ",
"                                          . . . . . . . . . . .                                                                 ",
"                                  . @     @     # $ % & * = - ; > . .   + .   .                                                 ",
"                                      @ ,   $ ' ) ! ~ { ] ^ / ! ( _ : <   ,   +                                                 ",
"                                < . @   < [ } { | 1 2 3 / 1 4 2 2 3 5 6   +   .                                                 ",
"                                  ,   7 8 9 } 0 / a 2 { b b b 2 } 4 c ! d   @   .                                               ",
"                                <   , e f g 1 h i | b b | b ! / c ! } j a k   l . . .                                           ",
"                                  < m n | o p j 2 q r 9 ^ 9 b ! } 3 c ] i q s   . . .                                           ",
"                                + t u v i g p w p 9 x y c z 9 | b h { 0 3 { A , . . .                                           ",
"                                + B C h 5 D w E / F .   G H I a b ^ b 9 / a 4 : . . .                                           ",
"                J K L M N O P Q R S T U V W X Y Z `  ...+.@.#.$.9 9 ^ ~ f a %.n <   .       .                                   ",
"                &.*.=.L -.;.>.,.'.).!.~.{.].^./.(._.:.<.[.}.|.1.%.2.3.%.4.~ f 5.  , +   6.,                                     ",
"                  7.8.9.0.a.0.b.;.c.d.e.f.g.h.i.j.k.l.m.n.o.p.q.3.3.r.2.s.%.t.u.  #   v.      +                                 ",
"                w.x.7.y.z.*.A.B.C.D.E.F.G.H.I.J.K.L.M.N.O.P.Q.R.S.r.T.U.r.4.T.H +     +     <                                   ",
"                V.V.W.L X.Y.Z.`. +.+++@+#+$+%+&+*+=+-+;+>+,+'+)+3.I S.S.r.~ 3.!+< ~+{+s , ,                                     ",
"                >.]+^+;./+(+_+:+<+[+}+|+1+2+3+4+5+6+7+8+9+0+a+b+z 3.c+2.T.d+d+e+f+4.r.~ g+    <                                 ",
"                Q ^+h+i+j+k+l+m+n+o+p+q+r+s+t+u+v+w+x+y+z+A+B+C+T.3.c+I r.%.r { ] d+! ] ~ ~+  <                                 ",
"                +.D+  E+F+G+H+I+o+J+K+L+M+N+O+P+Q+R+S+T+U+V+W+X+2.C z S.s.z { } ] ! a 0 { y   +                                 ",
"                7.Y+Z+Q `+ @.@+@@@#@$@%@&@*@=@-@;@>@,@'@)@!@~@{@C T.C r.c+]@3 ! 3 { b 1 0 ] ^@  <             .                 ",
"                X./@(@Q `+_@:@<@[@}@|@1@2@3@4@5@6@7@8@9@0@a@b@c@S.3.d@e@C 0 } a b 3 0 | 1 d+f@+ < .           .                 ",
"                g@J h@x.L '.i@j@k@l@m@n@o@p@q@r@s@t@u@v@w@x@y@z@d@A@B@C@| D@! 1 3 } 1 3 c %.E@. < .                             ",
"                g@h+F@G@H@I@Z.`+L J@K@L@M@N@O@P@Q@R@S@T@U@V@W@X@Y@Z@`@4.} | a c } | } 2 D@ #.#  +                               ",
"                w.I@+#@###  Q 7.$#F@%#&#*#=#-#;#>#,#'#)#!#~#{#]#e@A@C t. #a 3 3 } | 3 0 D@/ '   +                               ",
"                Q L P D.^#F@/#(#z._#:#<#[#}#|#1#2#3#4#5#6#7#8#9#S.3.%.0#2.a i ! 1 c |  #i / a#+ < .                             ",
"                b#  >.c#d#e#f#X.;.g#h#i#j#k#l#m#n#o#p#q#r#s#t#u#r.3.T.I C ^ ! 3 ! } ] f 1 ^ [   v., . .                         ",
"                v#w#7.w.X.7.x#y#z#A#B#C#D#E#F#G#H#I#J#K#L#M#N#O#r.4.s.r.]@| b b 0 9 9 a { d+!+  P#6.< .                         ",
"                        . < +   Q#5 1 5 R#S#T#U#V#W#X#Y#Z#`# $.$%.r  #r ]@t.^ a %.{ 0#~  #d++$, @$# @ < + .                     ",
"                        . < < . #$4 3 q $$%$&$*$=$-$;$>$>$s.0#4.r 9 a  #4.s.z 2.z 2.%.z d+0 ,$'$)$l @ , < . . .                 ",
"                    . . + , @ , !$p | 1 j $$~${$U#]$^$/$4.~ %.4.]@r f d+0#C T.S.r.3.2.0#3.e+($Q#_$P#6.@ , + . .                 ",
"                . . + < , 6.# l :$<$b | i ! } ] 9 r 4.%.~ s.z s.z z 2.C C C 2.z T.4.C z ^ [$}$|$1$:$v.6.@ < . .                 ",
"          . . . . + < @ 6.# P#)$  2$r h | 0 | { 3$4$5$0#s.z C C C 3.r.S.S.r.3.C 0#z z %.y k 6$7$1$:$# 6.@ < . .                 ",
"        . . . . . + , 6.v.# @$'$P#8$q a ] 9$0$a$f d+%.0#s.z C C 2.3.r.r.S.I S.r.0#r.%.p [ 6 b$c$_$:$v.6.@ < . .                 ",
"        . . . . < , 6.# # P#_$> c$d$' a e$f$g$a$^ r ]@~ 0#0#z 2.C 3.T.3.C 3.2.s.~  #o A [$e $ h$)$P#v.6.@ < . .                 ",
"        . . . . @ 6.# P#P#:$'$i$t j$k$l$f$m$n$o$p$q$r$s$t$u$v$w$2.C C 2.z 0#4.r f D x$y$6 z$A$> )$P#v.6.@ < . .                 ",
"        . + < < < v.# P#@$)$B$c$C$D$E$F$G$h 9 | | ] 9  #r d+]@t.4.4.4.d+t.d+r ] H$A = I$J$}$d$B$l # 6.@ , < . .                 ",
"        . . + < , v.# l @$_$> Q#K$D$- L$= 5.M$1 a 9 ^ { a 9 f t.d+ # #r r | x N$5.!+O$k$8$t > l # v.@ , < + .                   ",
"          . + < , 6.6.v.P#)$> Q#$ P$k$n Q$!+_ a#R$S$q 0 ] ] / b ! 1 2 w T$U$V$.#E@W$X$8$Y$7 G 6.v.6., < + + .                   ",
"          . + + < @ @ 6.l :$'$m #$Z$X$+$W$[$g+2$F `$x$ %u u.y T$.%+%@%A #%$%E@%%&%*%=%d$> 1$:$@ 6.@ , < + . .                   ",
"          . + + + @ @ 6.l P#)$> Q#!$s -%+$W$O$;%!+_ >%V$a#V$5.F ,%d Q$;%F$'%)%z$!%#$m ~%1$# 6.6.@ , < + + + .                   ",
"          . . + < @ 6.v.P#P#:$'$m c$t {%s ]%*%^%e /%- (%W$_%_%W$6 k &%:%-%8$=%#$7 i$B$_$@$P#v.@ , < + + + . .                   ",
"            . + + @ @ v.l l P#_$G i$7$d$Y${%}$<%Z$j$[%}%; -%-%; P$]%!%|%1%d$m B$'$1$P#@ 6.v., + < + . . . .                     ",
"            . . . < , @ # # l )$'$1$> 7 m Q#Y$|$t #$C$A$C$: #$t t Q#m 7 ~%B$G _$@$@$l # # , + @ + .                             ",
"          . . . + + < @ 6.# l P#)$)$1$'$B$> i$i$h$h$7 7 7 7 h$i$> > B$'$_$)$:$P#P#l v.@ , < + +                                 ",
"            . . . + < , 6.v.# l P#:$@$)$_$1$'$'$'$'$G G G '$'$1$1$_$_$)$:$P#l # # v.@ , < + . .                                 ",
"              . . . + < @ 6.v.v.# # l P#P#:$:$:$@$@$@$@$@$@$:$:$P#P#l l # v.6.6.@ , < + . .                                     ",
"                  . . + < , @ @ v.v.v.# # l l l l l P#P#P#l l l # # v.v.6.6.@ @ < + + .                                         ",
"                    . . + < < < @ @ 6.6.v.v.# # v.v.v.v.v.v.6.6.6.6.6.6.@ , < < . . .                                           ",
".                     . . . + + < < < , , @ @ 6.@ @ @ @ @ @ @ @ , , , < < + . . . . .                                           ",
". .                       . . . . . + + + < < < , , , , , , < < + + + . .             . . .                                     ",
". . .                           . . . . . . . . + + + . . . . .     . .                                                         "};
