/* XPM */
static char * exit_xpm[] = {
"64 64 20 1",
" 	c #F4F4F4",
".	c #F6F6F6",
"+	c #000000",
"@	c #F2F2F2",
"#	c #F8F8F8",
"$	c #EFEFEF",
"%	c #F0F0F0",
"&	c #111111",
"*	c #333333",
"=	c #E7E7E7",
"-	c #CECECE",
";	c #E1E1E1",
">	c #EDEDED",
",	c #C7C7C7",
"'	c #C0C0C0",
")	c #585858",
"!	c #868686",
"~	c #272727",
"{	c #707070",
"]	c #9B9B9B",
"#>.>.% @@ %.>.>#>#>.$ %@@% $.>#>#>.>.% @@ %.>.>#>#>.$ %@@% $.>#>",
">.$.% %@@% %.$.$.$.$ % @@ % $.$.$.$.% %@@% %.$.$.$.$ % @@ % $.$#",
".$.% % @@ % %.$.$.$ % %@@% % $.$.$.% % @@ % %.$.$.$ % %@@% % $.>",
">.% % @@@@ % % $.% % %@@@@% % %.$ % % @@@@ % % $.% % %@@@@% % $.",
".% % %@@@@% % % % % % @@@@ % % % % % %@@@@% % % % % % @@@@ % % $",
"% % %@@@@@@% % % % % @@@@@@ % % % % %@@@@@@% % % % % @@@@@@ % % ",
" % @@@@@@@@@@ % % %@@@@@@@@@@% % % @@@@@@@@@@ % % %@@@@@@@@@@% %",
"@@@@@@@@@@@@@@@@@@@@@@@@@@@@@@@@@@@@@@@@@@@@@@@@@@@@@@@@@@@@@@@@",
"@@@@@@@@@@@@@@@@@@@@@@@@       . . @@@@@        .             @@",
" % @@@@@@@@@@ % % %@@@@%-,-,-,-,-,->@@@=--,-,-,-,---,-,--,-,--%%",
"% % %@@@@@@% % % % % @%!&&&&&&&&&&!%@@ ,~&&&&&&&&~!~&&&&&&&&&*;.",
".% % %@@@@% % % % % @%!++++++++++{>% %.'&+++++++&]'&+++++++++*=%",
">.% % @@@@ % % $.% %@!++++++++++{>% %  '&++++++&] '&+++++++++*;#",
".$.% % @@ % %.$.$.%@!++++++++++{>%.% %.'&+++++&]%#'&+++++++++*=$",
">.$ % %@@% % $.$.%@!++++++++++{>%.$ %  '&++++&]%.@'&+++++++++*;#",
"#$.$ % @@ % $.$.$ !++++++++++{>%.$.$ %.'&+++&]%.>#'&+++++++++*=>",
">.$.% %@@% %.$.$ !++++++++++{>%.>.$.%  '&++&]%.>.@'&+++++++++*;#",
"#$.% % @@ % %.% !++++++++++{>%.$.$.% %.'&+&]%.$.$#'&+++++++++*=>",
">.$ % %@@% % %@!++++++++++{>%.$.$.$ %  '&&]%.$.$.@'&+++++++++*;#",
".$ % %@@@@% %@!++++++++++{>@ % $.% % %.'~]% % %.$#'&+++++++++*=$",
"$ % % @@@@ @@!++++++++++{>@ % % % % %  -]% % % %  '&+++++++++*;.",
" % % @@@@@@%!++++++++++{>@@% % % % % @@%@@@ % % @;)+++++++++&] %",
"% %@@@@@@@%!++++++++++{= @@@@ % % %@@@@@@@@@@% @;)+++++++++&] @ ",
"@@@@@@@@@%!++++++++++{= @@@@@@@@@@@@@@@@@@@@@@ ;)+++++++++&] @@@",
"@@@@@@@@%!++++++++++{> @@@@@@@@@@@@@@@@@@@@@@ ;)+++++++++&]@@@@@",
"% %@@@@%!++++++++++{>@@@@@@@@ % % %@@@@@@@@@ ;)+++++++++&]@ @ % ",
" % % @%!++++++++++{>@@@@@@@% % % % % @@@@@@.;)+++++++++&]@ % % %",
"$ % @%!++++++++++{>@ %@@@@% % % % % % @@@@.;)+++++++++&]@ % % %.",
".$ %@!++++++++++{>% % @@@@ % % $.% % %@@@ ;)+++++++++&] @@ % %.>",
">.%@!++++++++++{>%.% % @@ % %.$.$.$ % %@ ;)+++++++++&] @@ % %.$.",
"#$@!++++++++++{$@#@#@.    .@#@#%#%#% %  ;)+++++++++&] @@@% % $.>",
"> !++++++++++),,-,-,-,----,-,-,-,-,>% @=)+++++++++&].% @@ % %@>#",
"#;*++++++++++&&&&&&&&&&&&&&&&&&&&&~'#%.,&+++++++++*>% %@@% @;!=>",
">=*+++++++++++++++++++++++++++++++&,@  '&+++++++++*;.% @@ @=)*;#",
"#;*+++++++++++++++++++++++++++++++&'#%.'&+++++++++*=% %@@@=)+*=$",
"$=*+++++++++++++++++++++++++++++++&,@  '&+++++++++*; %@@ ;)++*;#",
".;*+++++++++++++++++++++++++++++++&'.%.'&+++++++++*=@ @ ;)+++*=%",
"%=*+++++++++++++++++++++++++++++++&, @ '&+++++++++*= @ ;)++++*;.",
" ;*+++++++++++++++++++++++++++++++&'.@.'&+++++++++*=@ ;)+++++*=@",
"@=*+++++++++++++++++++++++++++++++&' @ '&+++++++++*=.;)++++++*; ",
"@=)*********************&+++++++++&' @ '&+++++++++*=;)+++++++*; ",
" @=====================;*+++++++++&'.@.'&+++++++++*-)++++++++*=@",
"% % @ @@@@ @ @ % % @ @ =*+++++++++&, @ ,*~~~~~~~~~){~~~~~~~~~)=.",
".% % %@@@@% % % % % % @=*+++++++++&'.%@$;;;;;;;;;;;;;;;;;;;;;; $",
">.% % @@@@ % % $.% % % =*+++++++++&,@ @@ @ @.%.%.%.%.@ @@ @.%.%.",
".$.% % @@ % %.$.$.$ % @;*+++++++++&'#% @@ % %.$.$.$ % %@@% % $.>",
">.$ % %@@% % $.$.$.% % =*+++++++++&,@ %@@% % $.$.$.% % @@ % %.$#",
"#$.$ % @@ % $.$.>.$.% @;*+++++++++&'#% @@ % $.$.>.$.% %@@% %.$.>",
">.$.% %@@% %.$.>.$.$ % =*+++++++++&,@ %@@% %.$.>.$.$ % @@ % $.$#",
"#$.% % @@ % %.$.$.$ % @;*+++++++++&'#% @@ % %.$.$.$ % %@@% % $.>",
">.$ % %@@% % $.$.$.% % =*+++++++++&,@ %@@% % $.$.$.% % @@ % %.$.",
".$ % %@@@@% % %.$ % % @=)**********,.%@@@@% % %.$ % % @@@@ % %.>",
"$ % % @@@@ % % % % % %@%==;=;=;=;=;%% @@@@ % % % % % %@@@@% % %.",
" % % @@@@@@ % % % % %@@@@@ @ @ % @ % @@@@@@ % % % % %@@@@@@% % %",
"% %@@@@@@@@@@% % % @@@@@@@@@@ % % %@@@@@@@@@@% % % @@@@@@@@@@ % ",
"@@@@@@@@@@@@@@@@@@@@@@@@@@@@@@@@@@@@@@@@@@@@@@@@@@@@@@@@@@@@@@@@",
"@@@@@@@@@@@@@@@@@@@@@@@@@@@@@@@@@@@@@@@@@@@@@@@@@@@@@@@@@@@@@@@@",
"% %@@@@@@@@@@% % % @@@@@@@@@@ % % %@@@@@@@@@@% % % @@@@@@@@@@ % ",
" % % @@@@@@ % % % % %@@@@@@% % % % % @@@@@@ % % % % %@@@@@@% % %",
"$ % % @@@@ % % % % % %@@@@% % % % % % @@@@ % % % % % %@@@@% % %.",
".$ % %@@@@% % %.$ % % @@@@ % % $.% % %@@@@% % %.$ % % @@@@ % %.>",
">.$ % %@@% % $.$.$.% % @@ % %.$.$.$ % %@@% % $.$.$.% % @@ % %.$.",
"#$.$ % @@ % $.$.$.$.% %@@% %.$.$.$.$ % @@ % $.$.$.$.% %@@% %.$.>",
">#>.$ %@@% $.>#>#>.>.% @@ %.>.>#>#>.$ %@@% $.>#>#>.>.% @@ %.>.>#"};
