/* XPM */
static char * floor_xpm[] = {
"64 64 29 1",
" 	c #FFD224",
".	c #000000",
"+	c #FFD325",
"@	c #483317",
"#	c #FECF26",
"$	c #E8B039",
"%	c #F9C62E",
"&	c #FCCB2B",
"*	c #F7C232",
"=	c #9A6F2F",
"-	c #DAA13B",
";	c #F1B936",
">	c #23190B",
",	c #382812",
"'	c #B48235",
")	c #100C05",
"!	c #8D652C",
"~	c #CD963A",
"{	c #795726",
"]	c #C18D38",
"^	c #573E1C",
"/	c #FFDC53",
"(	c #FFE88C",
"_	c #FFD73E",
":	c #FFE374",
"<	c #664920",
"[	c #A97A33",
"}	c #E2A83B",
"|	c #FCD247",
"................................................................",
".....................)....................).....................",
"...................>!'<)................>!'^).................>)",
".................)<];%$[@.............><~;%$[@................).",
"................@'$& + *}!,.........)^'$& +#*-!>................",
"..............,=}% +   +#;~{>......,=}% +   +#;~{>..............",
"............>{~*#+     _:/&;]^)..>{-*#+      _/&$'^)............",
"...........@];&         _::/%$[>^];&+        /(:_%}=>...........",
"...........!*            _:(/#$^=*            /((/#$@...........",
"...........!*+            _::+$^=%+            _((_$@...........",
"...........!*+             /(_$^=%+             /(_$@...........",
"...........!*+             /(_$^=%+             /(/$@...........",
"...........!*+             +_+$^=%+             +:_$@...........",
"...........!*+                $^=%+              _ $@...........",
"...........!*+                $^=%+                $@...........",
"...........!*+                $^=%+                $@...........",
"...........!*+                $^=%+                $@...........",
"...........!*+               +$^=%+                $@...........",
"...........!* +             +#$^=* +             +#$@...........",
"...........@'$&           + %}=>@';&           + *}!>...........",
".........>{{,<~;&+        &$'^@=!@{~;#+        %$[@,{<).........",
".......)<];;'^,!-*#+   +&;]<@!-*;]<@!-*#+   +&;]<><~;$'@).......",
"......@[$%  %}[@@=}% +#*-{,{~;#+ &$'^@[$% +#*-{>^'$&+_%}=,......",
"....,!-*#+  ++*-!,^';*}=@^'$&    __%}=@<];*}=,,=}% + /:/*~{>....",
"..>{~;#+     /:|;~<,{[^@=}% +    _(:_*-{@{[@>{-*#+    _::|;]<)..",
".^];&       ++/::|$'@>{-*#+       _:(:|;]^)<];&+        /::|$[,.",
">~% +         +_:(/*]@-&+          +/((/%[,-%            +:(/*[)",
">~#             +((|]@-              _((&[,-             ++:(|')",
">~#              /(|]@-#              :(|[,-#             +/(|')",
">~#               /#]@-#              _:|[,-#               /&')",
">~#                #]@-#                &',-#                &')",
">~#                &]@-#               +&',-#               +&')",
">~#                &]@-#               +&',-#               +&')",
">~#                &]@-#               +&',-#               +&')",
">~#                &]@-#               +&',-#               +&')",
">~#                &]@-#               +&',-#               +&')",
">~#+              +&]@-#+              +%',-#+              +&')",
")=$% +          + %}!>!}* +          +#;~<>[$&            + *}{.",
".)^];&          &$'<<!,@[$%        +#*-!,^!@<];&+         %$[@..",
"...){~;#+    +#;~{^[$;~{,<];&+     %$[@@[$;~{@{-*#+    +&;]<)...",
".....,!}*#++#*-!^!-*#+&;]^,{-*#+ &;]^,!-*#+&;]<@=}% ++#*-{>.....",
".......@[$%%}[^{~;#+    %$[@,=}**~{,<~;#+  +_%$[@^'$&%}=,.......",
"........)<]'<<'$&      +/_*-!,^[=,^'$&     +::/*-!@<]'^)........",
"..........>@=}% +      _/(:|;~<>,=}% +      _:(:|;~{,)..........",
"...........=;#+         +/((/&}@!;#+          /((:&}@...........",
"...........=%+            _((_$@=%+            _:(_$@...........",
"...........=%+             /(/$@=%+             /(/$@...........",
"...........=%+             /:_$@=%+              /_$@...........",
"...........=%+              + $@=%+                $@...........",
"...........=%+                $@=%+                $@...........",
"...........=%+                $@=%+                $@...........",
"...........=%+                $@=%+                $@...........",
"...........=%+                $@=%+                $@...........",
"...........=%+                $@=%+                $@...........",
"...........=%+              + $@=%+              + $@...........",
"...........<-*#+            &;'><-*#+            &;'>...........",
"............,=}% +       +#;~{>..,=}% +       +#;~{>............",
".............)^'$&     +#*-!,.....)^'$&     +#*-!,..............",
"...............){~;#++ %$[@.........){~;#++ %$[@................",
".................>!-*&;]<)............>!-*&;]<).................",
"..................)@[~{>................@[~{>...................",
"....................)>...................)>.....................",
"................................................................",
"................................................................"};
