/* XPM */
static char * rubber_duck_xpm[] = {
"64 64 78 1",
" 	c #000000",
".	c #DBA63A",
"+	c #D7A031",
"@	c #E1B049",
"#	c #DEAA3E",
"$	c #C98C23",
"%	c #D19728",
"&	c #CF9428",
"*	c #CA9027",
"=	c #D39A2B",
"-	c #DFAB42",
";	c #DDA83F",
">	c #CD9226",
",	c #DFAC45",
"'	c #D49C2D",
")	c #D69E30",
"!	c #CC8D25",
"~	c #DAA438",
"{	c #DEAA41",
"]	c #C7851F",
"^	c #E0AD48",
"/	c #CE9532",
"(	c #D9A334",
"_	c #C98923",
":	c #C47E16",
"<	c #E1B352",
"[	c #BC720D",
"}	c #DCA83A",
"|	c #050301",
"1	c #291D0C",
"2	c #D29933",
"3	c #0E0903",
"4	c #C0790F",
"5	c #D8A138",
"6	c #1A1307",
"7	c #160E05",
"8	c #C19135",
"9	c #664919",
"0	c #DAA441",
"a	c #E1B34C",
"b	c #996618",
"c	c #755118",
"d	c #AF7D2A",
"e	c #C0801C",
"f	c #795A22",
"g	c #503B16",
"h	c #BD882E",
"i	c #C7821D",
"j	c #C56C4E",
"k	c #D49C33",
"l	c #402C0E",
"m	c #A56B1C",
"n	c #876524",
"o	c #9E742C",
"p	c #B28533",
"q	c #663F0D",
"r	c #443314",
"s	c #471D0E",
"t	c #B54A19",
"u	c #A43A16",
"v	c #39270A",
"w	c #D49E3C",
"x	c #936F28",
"y	c #A94324",
"z	c #553F1A",
"A	c #C99F59",
"B	c #642913",
"C	c #B85518",
"D	c #BA5632",
"E	c #C87A2B",
"F	c #9B805A",
"G	c #8A5B14",
"H	c #73351D",
"I	c #CA785E",
"J	c #C4682F",
"K	c #877153",
"L	c #4A494F",
"M	c #351205",
"                                                                ",
"                                                                ",
"                                                                ",
"                                                                ",
"                                                                ",
"                                                                ",
"                                                                ",
"                                                                ",
"                                                                ",
"                                                                ",
"                                                                ",
"                                                                ",
"                                                                ",
"                                 ||                             ",
"                              19noxfr7                          ",
"                            7c8}####0pg|                        ",
"                           6x.}##-^^,#2q|                       ",
"                          3x~.;#{^FKA,0EH7                      ",
"                          z2+(.;{ALLF^;!CuBsss7                 ",
"                         3o2k+(~.0FKA{;/JDttttB                 ",
"                         1h/%')+55000;0_jjjjjyM                 ",
"                        |1h*>%='')))552EIIjDys                  ",
"                         1h$!>&%%=====_JDyuus                   ",
"                         3o__$!>>&&&&>iCuuyB|                   ",
"                          c]]]__$!!!!!][CtH|                    ",
"                          1[:eii]]]]]]i:Em6                     ",
"                 66        q444:4:::::::i9                      ",
"                g8893      |q[[[44444::i]g                      ",
"               7p@@}x6      |q[[[[[44:]_!b6                     ",
"               r5-a@}dv      l[[[[4e]$&22/ov                    ",
"               9(}aa#(h9111l9meee]!/2w000558f6                  ",
"               f+(,<@.)&hdde]_$*&2k00{,^,{.~5dl                 ",
"               n)+}aa,~)2///22k+5~;{,^@@^^-;..8g                ",
"               n='(-@@#~(5~~~~..;;-,^@@@@^^-;../g               ",
"               f2=+.-,,;};;;;;;;{{-,^@@@@@@^-;.~81              ",
"               c/%=+.#{{;##{{{---,^@@@a<<<a@,#.(~n|             ",
"               g/&%'+.}};##{{{-,,,^@@a<<<<<@,;.(581             ",
"               18/>%'+~..};#{{{--,^@@<<<<<@^-}~(+wr             ",
"               3o/*>%')(~....;;;;{-,,^^,,,-#.~(++5z             ",
"                9/**>%=')+++((~~~........~~~(++))wr             ",
"                6d/**>&%%==='')))+++)))))++++)))+h6             ",
"                 z8*****>&&&%%%%=========''')''kwf              ",
"                 |f**$$$****>>>&&&%%%%%%%%====2kp6              ",
"                  7n$$$$$$$$!***>>>>>&&&&&%%/22pl               ",
"                   7ce__$$$$$$$$!!!***>>>&&&*df1                ",
"                    |vcme]]]____$$$!!!!_]dbcr6                  ",
"                      |6vqcGbbmmbbbGc9gl17|                     ",
"                           |333333|| ||                         ",
"                                                                ",
"                                                                ",
"                                                                ",
"                                                                ",
"                                                                ",
"                                                                ",
"                                                                ",
"                                                                ",
"                                                                ",
"                                                                ",
"                                                                ",
"                                                                ",
"                                                                ",
"                                                                ",
"                                                                ",
"                                                                "};
