/* XPM */
static char * wall_xpm[] = {
"64 64 62 1",
" 	c #FDC33C",
".	c #000000",
"+	c #FCB814",
"@	c #FBB714",
"#	c #FDCA4F",
"$	c #FDC238",
"%	c #FDBF2D",
"&	c #FCBD26",
"*	c #FDC132",
"=	c #482500",
"-	c #FCBB1F",
";	c #FCBA1A",
">	c #F6AF12",
",	c #F3AB12",
"'	c #F0A710",
")	c #E7990D",
"!	c #EDA20F",
"~	c #EA9E0F",
"{	c #DB8908",
"]	c #FAB513",
"^	c #C46600",
"/	c #F8B212",
"(	c #C66B01",
"_	c #E2910B",
":	c #0B0601",
"<	c #D37C06",
"[	c #D78206",
"}	c #CB7103",
"|	c #FCC74D",
"1	c #CE7705",
"2	c #E4940B",
"3	c #DF8E09",
"4	c #F8C24D",
"5	c #E09F44",
"6	c #D89642",
"7	c #321C06",
"8	c #6B3700",
"9	c #A95C01",
"0	c #1A0F03",
"a	c #7E4501",
"b	c #EFB449",
"c	c #F4BB4B",
"d	c #914F01",
"e	c #E9AC48",
"f	c #F7B729",
"g	c #582E00",
"h	c #F5B323",
"i	c #815727",
"j	c #CA893D",
"k	c #B07835",
"l	c #FDCC58",
"m	c #B36404",
"n	c #402A13",
"o	c #97662C",
"p	c #69451F",
"q	c #E7A740",
"r	c #FCC543",
"s	c #FDD067",
"t	c #533719",
"u	c #F8BD39",
"v	c #E39E2D",
"w	c #DC9026",
"........................:78d9^(}(^mopn0.........................",
".......................g913)!',,,'!!q6kt:.......................",
".....................:a3,]+;-&&&&&-;$|cqi:......................",
".....................g)++&*$       $ l##et......................",
".....................a,++%          rl##ci......................",
"...................:8^['@+-&%*****%&-r|c5jp:....................",
"..................:a),2[3~'>]]@@@]/>'qq5b4ei:...................",
"..................=3+++/')_____2____2!fr###5n...................",
"..................8!+@+;;++]/>>>>>/]+;;*###bp...................",
"..................g{]@-$$**%&&&&&&%%*$$$|#|5p...................",
"...............:=d9^{>+&*$           $%- 45jkot:................",
"..............:a~/,31<2,];-&&%%%%%&&-;]'q66e4|ei:...............",
"..............=)+@++/!_{3)!',>//>>,'~)3{~b|####en...............",
"..............a]@@@@+++]>,'!!~~~~~!!',/]+;r####4i...............",
"..............d]@@+&%%&--;;+++@@@+++;;-&&% l###4o...............",
"..............a!+@+*     $$**%%%%%**$$     l###bi...............",
".............081'+@;%$                   *& ##b6i0..............",
"..........:0d1<(}2>+++-&%*$$$    $$$$*%&-++ 4q6656o7............",
"..........7(,+@'31<_']+++++;;----;;;++++@/'q66e4##cjn...........",
".........:9,+@@++/!_{{2!,>]]@@@@@@@]/>'~2{{vc|#####ck0..........",
".........={+@@@@@@++]>'~))))~~~~~~)))))~'>]+; ######5n..........",
".........g~+@@+---;+@@+++@]//>>>>>//]@+++@@+;-rl####bp..........",
".........82+@@&   $**%&-;;++@@@@@@@++;;-&%**$$rsl###ep..........",
".........g1>+@;$        $$**%%%%%%%**$$        |###46p..........",
".........=^{/+@-*                            $%&|#45jn..........",
"........7d^^[,+@+-%$                       $%-@-|c5jjo7.........",
".......g})~3}}_>++@+-&%*$            $$*%&-+@+@he66ebbjp........",
"......g<>+++>)<<3!/@++++;--&&&&%&&&&--;++++@>!{{5b4###46p.......",
".....7}>+@@@@+]'){{_~'>]@@+++++++++++@@]>'~_{3),$######4jn......",
".....d)+@@@;;;+++@>'~)2))~!!'',,,''!!~))2)~'/@++;|l#####eo......",
".....(,+@@&$$$*%&-;;++]/>,,''''''''',>/]@++;;-&%*|ssl###cj......",
".....},+@@*       $$*%&-;;+++++++++++;;-&%%$$    rsss###c6......",
".....m!+@@&             $$**%%%%%%%**$$           ssl###bj......",
".....a[]@@+%                                      sl###45o......",
".....79_]+@+&$                                    ####|qk7......",
"......79{>+@@;%$                               $&&|##45kn.......",
".......09<~]+@@;&*$                         $*&;@*#|b5k7........",
"......:a[}([~/++@+;&%*$                 $*%&;@@+;4b55cqi:.......",
"......g{]'[(^1_'/@++@+;-&&%%%*****%%%&--;+@++@/!v66e4#|5t.......",
".....:9>++]![(^(1{)'>]@+++++++++++++++++@]>'){1}6e4####ck0......",
".....71@@@@+]'_<(^^(}<{_)!',,>>>>>,,'!)_{<}(^}[~u######|67......",
".....7<@@@@@@++],){1}^^^^^(}(9dd9(}((^^^(}<3~>@+%######|6n......",
".....0m/+@@@+---;;+],!)_{[}98====891[{2~'>]+;;--%######4k0......",
"......82+@@@-   $$*%&--;+>(g======8}/+;--&%*$$  rl#####ep.......",
"......:d!+@@-$        $$*_a========d)*$$        rl####bo0.......",
".......0d)]+@&$         u18========8<$         $$###|eo0........",
"........:a['@+;%$       f^g========8}u       $*-*#|c5i:.........",
".........8^({!/+;&*$   rh(8========8}f    $*%-+-4b55ei..........",
".........9_}^(<_'/@;-&%*f1a========d<u**%&-+@>'q55b4#k:.........",
"........:m+,2<(^(1{2!,/@;{m8======8^_;+]/,!2[1wqc|###k:.........",
".........a>++]'_<}^^^}1[{[^mag==gam({_{<1}}1{~h|####4i..........",
".........7[]+@++]>!2{<}(^^^^^9dd9^^^^(}<{)'/++@*###|6n..........",
"..........g{/+@@@++-&-h,'~)2[}((}{2)!,/@-&&-@@@%##|5p...........",
"...........=m!]+@@+*    $*%%&h,,h&%%**$$   *@@@$|bjt............",
"............7m[!/++-*         rr         $%;+@fcbj7.............",
".............d[1<_!/@-&*$$           $**&-]>!)qcco:.............",
".............=[,)[1<[_~'>];-&&&&&&&-;]>'~233),r46t..............",
".............:8[,@/!2{[<<<[{{33333{{{{{32~,]+&c6i:..............",
"..............:g9{,@++@fh,!~~))))~!',hf-+++],vkt:...............",
"................:79!,,/&*    $$$$    $*;>!)won0.................",
"..................0m!,!~!',>hhffhhh,'~233__k7...................",
"...................0a[!>>,'!~~)))))~~!''~<a0....................",
".....................7am[)'hffffffh>!2[ma7......................",
".......................0=8d9(1<<<1(9d8=0........................"};
