/* XPM */
static char * counter_xpm[] = {
"56 64 499 2",
"  	c None",
". 	c #A4A8A2",
"+ 	c #979D97",
"@ 	c #A2A7A1",
"# 	c #A6A9A4",
"$ 	c #9EA39D",
"% 	c #9FA39D",
"& 	c #A6AAA5",
"* 	c #999F99",
"= 	c #A5A9A3",
"- 	c #A8ABA6",
"; 	c #A0A49E",
"> 	c #A0A59F",
", 	c #A9ADA7",
"' 	c #A7ABA5",
") 	c #9BA09A",
"! 	c #A6AAA4",
"~ 	c #A8ACA6",
"{ 	c #A9ACA7",
"] 	c #9FA49E",
"^ 	c #A8ACA7",
"/ 	c #9AA099",
"( 	c #A7ACA6",
"_ 	c #A3A7A2",
": 	c #989D97",
"< 	c #A5A9A4",
"[ 	c #999F98",
"} 	c #A4A9A3",
"| 	c #A5AAA4",
"1 	c #A7ABA6",
"2 	c #989E98",
"3 	c #9AA09A",
"4 	c #A6ABA5",
"5 	c #AAADA8",
"6 	c #A4A8A3",
"7 	c #9A9F99",
"8 	c #A1A59F",
"9 	c #9BA19A",
"0 	c #A8ADA7",
"a 	c #A1A6A0",
"b 	c #A9AEA8",
"c 	c #9CA29B",
"d 	c #9FA59F",
"e 	c #9CA19C",
"f 	c #989C97",
"g 	c #959995",
"h 	c #969C96",
"i 	c #A9ADA8",
"j 	c #9DA39C",
"k 	c #AAAEA9",
"l 	c #A2A8A1",
"m 	c #9DA29C",
"n 	c #9DA29D",
"o 	c #9DA39D",
"p 	c #9EA49E",
"q 	c #A3A8A2",
"r 	c #A4A9A4",
"s 	c #9BA19B",
"t 	c #8E948F",
"u 	c #2C3434",
"v 	c #595E5D",
"w 	c #7D837F",
"x 	c #A3A8A3",
"y 	c #9CA29C",
"z 	c #A4A9A2",
"A 	c #B3B7B1",
"B 	c #A1A7A1",
"C 	c #A2A6A1",
"D 	c #A1A5A0",
"E 	c #959C96",
"F 	c #A2A7A2",
"G 	c #969D97",
"H 	c #A1A6A1",
"I 	c #888E89",
"J 	c #1D2829",
"K 	c #444B4A",
"L 	c #747B77",
"M 	c #9BA09B",
"N 	c #AFB3AE",
"O 	c #A1A7A0",
"P 	c #9EA39E",
"Q 	c #A5AAA5",
"R 	c #9EA49F",
"S 	c #7B807D",
"T 	c #757A77",
"U 	c #939994",
"V 	c #ADB1AB",
"W 	c #A6ABA6",
"X 	c #A8ADA8",
"Y 	c #A2A8A2",
"Z 	c #AAAFA9",
"` 	c #A9AEA9",
" .	c #A3A9A3",
"..	c #ABB0AA",
"+.	c #989F99",
"@.	c #A2A8A3",
"#.	c #ABAFAA",
"$.	c #A7ACA7",
"%.	c #A0A6A0",
"&.	c #ACB0AB",
"*.	c #BBBFB8",
"=.	c #A7ADA7",
"-.	c #9FA6A0",
";.	c #ACB1AB",
">.	c #AEB3AD",
",.	c #ACB1AC",
"'.	c #A6ACA6",
").	c #9FA5A0",
"!.	c #9EA59F",
"~.	c #A1A8A3",
"{.	c #969C97",
"].	c #8F9792",
"^.	c #878F8B",
"/.	c #9AA09C",
"(.	c #9BA19C",
"_.	c #A3A9A4",
":.	c #9CA39D",
"<.	c #A4AAA5",
"[.	c #AFB4AE",
"}.	c #A2A9A2",
"|.	c #AEB2AD",
"1.	c #A5ABA5",
"2.	c #ABB0AB",
"3.	c #9CA39C",
"4.	c #ADB1AC",
"5.	c #AAAFAA",
"6.	c #B9BDB7",
"7.	c #A3AAA3",
"8.	c #9AA09B",
"9.	c #8C928E",
"0.	c #787F7B",
"a.	c #666D6A",
"b.	c #565E5C",
"c.	c #515A58",
"d.	c #454E4D",
"e.	c #3D4746",
"f.	c #333E3E",
"g.	c #303B3B",
"h.	c #2E3939",
"i.	c #2D3939",
"j.	c #2D3839",
"k.	c #2D3838",
"l.	c #2E3A3A",
"m.	c #2F3B3B",
"n.	c #303C3C",
"o.	c #333F3F",
"p.	c #374343",
"q.	c #404C4C",
"r.	c #4D5756",
"s.	c #56605E",
"t.	c #5A6462",
"u.	c #6A7270",
"v.	c #79807D",
"w.	c #858D89",
"x.	c #949B97",
"y.	c #ADB2AC",
"z.	c #BABEB8",
"A.	c #A4AAA4",
"B.	c #AEB3AE",
"C.	c #939A96",
"D.	c #323D3D",
"E.	c #5C6564",
"F.	c #9DA49E",
"G.	c #BABFB8",
"H.	c #BCC1BB",
"I.	c #ADB3AD",
"J.	c #B1B6B1",
"K.	c #5D6563",
"L.	c #2F3A3A",
"M.	c #303A3A",
"N.	c #303B3A",
"O.	c #313B3B",
"P.	c #313A3A",
"Q.	c #7D8581",
"R.	c #B0B5AF",
"S.	c #B1B6B0",
"T.	c #AEB4AD",
"U.	c #B9BFB8",
"V.	c #BFC4BD",
"W.	c #A7AEA7",
"X.	c #AFB4AF",
"Y.	c #313B3C",
"Z.	c #313C3C",
"`.	c #313C3D",
" +	c #313D3D",
".+	c #313C3E",
"++	c #4F5856",
"@+	c #B2B7B1",
"#+	c #C0C4BE",
"$+	c #A9B0A9",
"%+	c #313E3E",
"&+	c #323E3E",
"*+	c #313D3E",
"=+	c #354040",
"-+	c #ACB2AC",
";+	c #B4B9B3",
">+	c #C0C5BF",
",+	c #ABB2AB",
"'+	c #B2B8B2",
")+	c #9EA39F",
"!+	c #323F3F",
"~+	c #979D98",
"{+	c #B5BAB4",
"]+	c #AFB5AF",
"^+	c #C2C7C1",
"/+	c #ACB3AC",
"(+	c #959B97",
"_+	c #323D3E",
":+	c #868D88",
"<+	c #B6BCB6",
"[+	c #B1B7B1",
"}+	c #BBC0BA",
"|+	c #C4C9C2",
"1+	c #ADB4AE",
"2+	c #B7BCB6",
"3+	c #334040",
"4+	c #323E3F",
"5+	c #818884",
"6+	c #B9BEB8",
"7+	c #B3B9B2",
"8+	c #BBC1BA",
"9+	c #C6CBC4",
"0+	c #AFB6AF",
"a+	c #B8BEB8",
"b+	c #8B918D",
"c+	c #7D8480",
"d+	c #B4BAB4",
"e+	c #BCC2BB",
"f+	c #C7CCC6",
"g+	c #B1B8B1",
"h+	c #BAC0BA",
"i+	c #344040",
"j+	c #767D79",
"k+	c #BDC3BC",
"l+	c #C8CCC6",
"m+	c #828885",
"n+	c #333F40",
"o+	c #344141",
"p+	c #727A76",
"q+	c #BFC4BE",
"r+	c #C9CDC7",
"s+	c #B2BAB2",
"t+	c #BDC2BC",
"u+	c #808783",
"v+	c #343F40",
"w+	c #6C7471",
"x+	c #BFC5BE",
"y+	c #B5BBB5",
"z+	c #CACFC8",
"A+	c #B4BBB4",
"B+	c #BEC3BD",
"C+	c #6A7370",
"D+	c #C0C6BF",
"E+	c #BDC4BC",
"F+	c #C9CEC7",
"G+	c #B3BAB3",
"H+	c #777F7B",
"I+	c #344041",
"J+	c #5E6764",
"K+	c #C1C6C0",
"L+	c #BCC2BC",
"M+	c #CACFC9",
"N+	c #747C78",
"O+	c #B6BDB6",
"P+	c #BEC4BD",
"Q+	c #D7DBD6",
"R+	c #CCD0CA",
"S+	c #757C79",
"T+	c #C3C8C1",
"U+	c #B7BDB7",
"V+	c #CCD1CB",
"W+	c #757D79",
"X+	c #4F5A58",
"Y+	c #C2C8C1",
"Z+	c #DDE1DC",
"`+	c #CCD1CA",
" @	c #B7BEB7",
".@	c #767D7A",
"+@	c #4C5655",
"@@	c #C2C8C2",
"#@	c #DDE0DC",
"$@	c #CDD2CC",
"%@	c #C1C7C0",
"&@	c #C1C7C1",
"*@	c #DEE1DC",
"=@	c #CED2CC",
"-@	c #777E7A",
";@	c #B7BEB8",
">@	c #E1E4E0",
",@	c #CED3CC",
"'@	c #B7BEB6",
")@	c #DADED8",
"!@	c #BCC3BC",
"~@	c #D9DDD7",
"{@	c #BBC2BB",
"]@	c #D8DCD7",
"^@	c #CFD4CD",
"/@	c #7A817E",
"(@	c #5D6664",
"_@	c #BBC1BB",
":@	c #D2D6D0",
"<@	c #D0D5CE",
"[@	c #B6BEB6",
"}@	c #BFC5BF",
"|@	c #838A86",
"1@	c #BAC1BA",
"2@	c #D0D5CF",
"3@	c #828986",
"4@	c #5D6764",
"5@	c #B9C0B9",
"6@	c #CFD3CD",
"7@	c #CFD4CE",
"8@	c #B9BFB9",
"9@	c #CDD1CB",
"0@	c #858B88",
"a@	c #606966",
"b@	c #CBD0CA",
"c@	c #D1D6CF",
"d@	c #909692",
"e@	c #6B7471",
"f@	c #CBD0C9",
"g@	c #D2D7D0",
"h@	c #717A76",
"i@	c #B8BFB8",
"j@	c #79817D",
"k@	c #C0C6C0",
"l@	c #D1D5CF",
"m@	c #D2D8D0",
"n@	c #B5BCB5",
"o@	c #A5ABA6",
"p@	c #7C8480",
"q@	c #D3D9D1",
"r@	c #B5BDB6",
"s@	c #ADB2AD",
"t@	c #D7DBD5",
"u@	c #D4D9D2",
"v@	c #BEC4BE",
"w@	c #858C88",
"x@	c #D3D8D1",
"y@	c #B8BDB8",
"z@	c #354141",
"A@	c #8E9590",
"B@	c #DCE0DA",
"C@	c #364342",
"D@	c #99A09B",
"E@	c #BDC4BD",
"F@	c #D9DCD7",
"G@	c #B8BFB7",
"H@	c #3C4847",
"I@	c #A6ADA7",
"J@	c #B5BCB6",
"K@	c #555E5D",
"L@	c #3B4847",
"M@	c #B3B9B3",
"N@	c #8D948F",
"O@	c #6C7572",
"P@	c #6B7370",
"Q@	c #505957",
"R@	c #9BA39D",
"S@	c #AAB0AA",
"T@	c #8F9591",
"U@	c #79807C",
"V@	c #6F7773",
"W@	c #5F6765",
"X@	c #57605E",
"Y@	c #4B5553",
"Z@	c #444E4D",
"`@	c #3B4646",
" #	c #3B4746",
".#	c #3C4747",
"+#	c #454F4E",
"@#	c #4A5452",
"##	c #6F7774",
"$#	c #7E8581",
"%#	c #949A95",
"&#	c #AFB6B0",
"*#	c #BAC0B9",
"=#	c #B0B7B0",
"-#	c #AEB5AE",
";#	c #B7BDB6",
">#	c #A9B1AA",
",#	c #B5BBB4",
"'#	c #B0B6B0",
")#	c #AEB5AF",
"!#	c #A9B0AA",
"~#	c #B6BBB5",
"{#	c #AEB4AE",
"]#	c #A8AFA9",
"^#	c #B6BCB5",
"/#	c #C5CAC3",
"(#	c #C2C7C0",
"_#	c #B2B9B2",
":#	c #BDC3BD",
"<#	c #B8BDB7",
"[#	c #B8BEB7",
"}#	c #C0C5BE",
"|#	c #C5C9C3",
"1#	c #C6CAC4",
"2#	c #C3C8C2",
"3#	c #C4C9C3",
"4#	c #C1C6BF",
"5#	c #BABFB9",
"6#	c #B4BAB3",
"7#	c #ACB3AD",
"8#	c #B9BEB9",
"9#	c #B5BCB4",
"0#	c #C3C7C1",
"a#	c #A8AEA9",
"b#	c #A9AFAA",
"c#	c #A7ADA8",
"d#	c #A8AEA8",
"e#	c #A5ACA6",
"f#	c #A4ABA5",
"g#	c #A2A9A3",
"h#	c #B3B8B2",
"i#	c #9FA7A1",
"j#	c #A9AFA9",
"k#	c #B0B5B0",
"l#	c #A5ACA5",
"m#	c #C2C6C0",
"n#	c #B0B6AF",
"o#	c #A3AAA4",
"p#	c #A4ABA4",
"q#	c #BEC2BC",
"r#	c #ABB1AB",
"s#	c #A1A8A2",
"t#	c #99A09A",
"u#	c #939A95",
"v#	c #989E99",
"w#	c #8D958F",
"x#	c #979D99",
"y#	c #929893",
"z#	c #939995",
"A#	c #919893",
"B#	c #999E9A",
"C#	c #909792",
"D#	c #CED3CD",
"E#	c #C8CCC4",
"F#	c #C7CBC4",
"G#	c #C4C8C1",
"H#	c #C9CCC4",
"I#	c #C4C9C1",
"J#	c #C9CDC6",
"K#	c #C8CBC6",
"L#	c #C7CAC3",
"M#	c #C8CCC5",
"N#	c #C9CCC5",
"O#	c #C8CBC5",
"P#	c #CACDC6",
"Q#	c #C6CAC3",
"R#	c #CACDC7",
"S#	c #CDD0C9",
"T#	c #D1D3CE",
"U#	c #DADCD6",
"V#	c #DCDFDB",
"W#	c #C4C8C2",
"X#	c #B7BCB7",
"Y#	c #B7BAB5",
"Z#	c #B5B9B4",
"`#	c #B2B6AF",
" $	c #B0B4AD",
".$	c #A8ABA4",
"+$	c #A5A8A0",
"@$	c #A0A49D",
"#$	c #9CA09A",
"$$	c #9A9E98",
"%$	c #9B9F99",
"&$	c #999E97",
"*$	c #9BA099",
"=$	c #9A9F98",
"-$	c #9EA29B",
";$	c #A3A79F",
">$	c #ACB0A8",
",$	c #B4B7AD",
"'$	c #BDC0B8",
")$	c #C1C4BD",
"!$	c #C8CAC4",
"~$	c #CBCECA",
"{$	c #CFD2CB",
"]$	c #D8DBD7",
"^$	c #AAAEA8",
"/$	c #9A9E97",
"($	c #979C95",
"_$	c #959993",
":$	c #939892",
"<$	c #959A94",
"[$	c #969B95",
"}$	c #949892",
"|$	c #929791",
"1$	c #949992",
"2$	c #969A94",
"3$	c #959994",
"4$	c #969A95",
"5$	c #939891",
"6$	c #979B95",
"7$	c #949893",
"8$	c #949A93",
"9$	c #989C96",
"0$	c #949993",
"              . + @ # $ % & # * = - ; > , ' ) ! ~ > > , ' ) ! { ] > ^ # / ' ( $ >                               ",
"      ~ > ] . _ : _ < $ $ ! = [ } & ] > ( ! / | 1 ] ] = . 2 | ' ] > ' < 3 ! ' $ ] 4 . * & 5 > @ , 6             ",
"    ^ 1 > ] ! | 7 < - > 8 ~ ( 9 4 0 a @ b 0 c ( , d e f g h & , a @ , ( c ( , > a ~ 4 9 ' i > @ , - j k         ",
"  l 0 0 > $ } _ + a _ m n } 6 2 @ 6 o p & < * q r s t u v w @ } n ] | } * x } y $ } _ / | , a z k , o , A       ",
"  B 4 & m ) C D E > F e s _ @ G H q y y } _ + @ x e I J K L @ x y y x @ + @ q M e F D G @ } y $ | < s b N       ",
"  O 4 6 n e x x 2 F } P P Q < * x | R d ( & 3 r & p y S T U | | p d 4 r 3 r < o p | x * q } e $ r _ * 1 V F     ",
"  @ ( Q d p W W s W X Y Y Z ` o X k  . ...Z p b Z F d F H +.X k @. .#.` p b k F x Z X o $.^ d %.( < 3 4 &.4     ",
"*.Y =.0 x Y ....-.;.>.X =.N ,.d '.4 ).!.~.P U o P {.].t t ^.e %./.(._.@.:.X ` <.'.[.>.}.|.>.<.1.2.0 3.( 4.5.    ",
"6.7.b ..W ).8.9.0.L a.b.c.d.e.f.g.h.h.h.i.i.i.i.i.i.j.k.k.j.i.h.h.l.m.m.g.n.o.p.q.r.s.t.u.v.w.x.$.4.%.b y.;.    ",
"z.A.2.B.C.D.i.h.h.h.h.h.l.l.l.l.l.l.l.l.l.l.l.l.l.l.l.l.l.l.l.l.l.l.l.l.l.l.l.l.l.l.l.l.l.l.l.h.o.E.F.y.[.y.G.  ",
"H.'.I.J.K.l.l.l.l.L.L.L.L.L.L.M.M.M.N.N.N.N.g.g.O.O.O.O.O.O.O.O.O.O.O.O.O.O.O.O.O.O.P.P.P.M.M.L.L.l.Q.R.S.T.U.  ",
"V.W.X.[.D.L.M.g.O.Y.Y.Z.Z.Z.`.`.`.`.`.`.`.`.`.`.`.`.`.`. + +`.`..+.+`..+ + + + +`.`.`.`.`.Y.Y.Y.O.g.++@+@+>.U.  ",
"#+$+S.2.g.Y.`.`. + +%+%+%+%+&+&+&+&+&+&+&+&+&+&+&+&+&+&+&+&+&+&+&+&+&+&+&+&+&+&+&+&+&+&+&+%+%+%+*+`.=+-+;+[.G.  ",
">+,+'+)+`.&+&+&+&+&+&+&+&+&+&+&+&+&+!+!+!+!+!+!+!+!+!+!+!+!+!+!+!+!+!+!+!+!+!+!+&+&+&+&+&+&+&+&+&+&+D.~+{+]+U.  ",
"^+/+{+(+D.&+&+&+&+!+!+!+!+!+!+!+!+!+o.o.o.o.o.o.o.o.o.o.o.o.o.o.o.o.o.o.o.o.o.o.o.!+!+!+!+!+!+!+!+!+_+:+<+[+}+  ",
"|+1+2+{.&+!+!+!+o.o.o.o.o.o.o.o.o.o.o.3+3+3+3+3+3+3+3+3+3+3+3+3+3+3+3+3+3+3+3+3+o.o.o.o.o.o.o.o.o.o.4+5+6+7+8+  ",
"9+0+a+b+f.o.o.o.o.o.3+3+3+3+3+3+3+3+3+3+3+3+3+3+3+3+3+3+3+3+3+3+3+3+3+3+3+3+3+3+3+3+3+3+3+3+3+3+3+o.o.c+}+d+e+  ",
"f+g+h+9.o.3+3+3+3+3+3+3+3+3+3+3+3+3+3+i+i+i+i+i+i+i+i+i+i+i+i+i+i+i+i+i+i+i+i+i+3+i+3+3+3+3+3+3+3+3+3+j+k+d+k+  ",
"l+g+H.m+n+3+3+3+3+3+i+i+i+i+i+i+o+o+o+o+o+o+o+o+o+o+o+o+o+o+o+o+o+o+o+o+o+o+o+o+o+o+o+i+i+i+i+i+i+3+3+p+q+d+e+  ",
"r+s+t+u+v+i+i+i+i+o+o+o+o+o+o+o+o+o+o+o+o+o+o+o+o+o+o+o+o+o+o+o+o+o+o+o+o+o+o+o+o+o+o+o+o+o+o+o+o+o+i+w+x+y+e+  ",
"z+A+B+5+i+o+o+o+o+o+o+o+o+o+o+o+o+o+o+o+o+o+o+o+o+o+o+o+o+o+o+o+o+o+o+o+o+o+o+o+o+o+o+o+o+o+o+o+o+o+o+C+D+<+E+  ",
"F+G+e+H+I+o+o+o+o+o+o+o+o+o+o+o+o+o+o+o+o+o+o+o+o+o+o+o+o+o+o+o+o+o+o+o+o+o+o+o+o+o+o+o+o+o+o+o+o+o+o+J+K+y+L+  ",
"M+A+B+N+I+o+o+o+o+o+o+o+o+o+o+o+o+o+o+o+o+o+o+o+o+o+o+o+o+o+o+o+o+o+o+o+o+o+o+o+o+o+o+o+o+o+o+o+o+o+o+J+^+O+P+Q+",
"R+O+>+S+o+o+o+o+o+o+o+o+o+o+o+o+o+o+o+o+o+o+o+o+o+o+o+o+o+o+o+o+o+o+o+o+o+o+o+o+o+o+o+o+o+o+o+o+o+o+o+J+T+U+x+Q+",
"V+O+D+W+o+o+o+o+o+o+o+o+o+o+o+o+o+o+o+o+o+o+o+o+o+o+o+o+o+o+o+o+o+o+o+o+o+o+o+o+o+o+o+o+o+o+o+o+o+o+o+X+Y+U+x+Z+",
"`+ @K+.@o+o+o+o+o+o+o+o+o+o+o+o+o+o+o+o+o+o+o+o+o+o+o+o+o+o+o+o+o+o+o+o+o+o+o+o+o+o+o+o+o+o+o+o+o+o+o++@@@ @x+#@",
"$@ @%@j+o+o+o+o+o+o+o+o+o+o+o+o+o+o+o+o+o+o+o+o+o+o+o+o+o+o+o+o+o+o+o+o+o+o+o+o+o+o+o+o+o+o+o+o+o+o+o++@&@U+x+*@",
"=@ @%@-@o+o+o+o+o+o+o+o+o+o+o+o+o+o+o+o+o+o+o+o+o+o+o+o+o+o+o+o+o+o+o+o+o+o+o+o+o+o+o+o+o+o+o+o+o+o+o++@Y+;@P+>@",
",@'@&@.@o+o+o+o+o+o+o+o+o+o+o+o+o+o+o+o+o+o+o+o+o+o+o+o+o+o+o+o+o+o+o+o+o+o+o+o+o+o+o+o+o+o+o+o+o+o+o++@^+;@P+)@",
",@ @%@S+o+o+o+o+o+o+o+o+o+o+o+o+o+o+o+o+o+o+o+o+o+o+o+o+o+o+o+o+o+o+o+o+o+o+o+o+o+o+o+o+o+o+o+o+o+o+o++@&@U+!@~@",
"$@'@&@.@o+o+o+o+o+o+o+o+o+o+o+o+o+o+o+o+o+o+o+o+o+o+o+o+o+o+o+o+o+o+o+o+o+o+o+o+o+o+o+o+o+o+o+o+o+o+o+X+Y+ @{@]@",
"^@ @D+/@o+o+o+o+o+o+o+o+o+o+o+o+o+o+o+o+o+o+o+o+o+o+o+o+o+o+o+o+o+o+o+o+o+o+o+o+o+o+o+o+o+o+o+o+o+o+o+(@Y+U+_@:@",
"<@[@}@|@o+o+o+o+o+o+o+o+o+o+o+o+o+o+o+o+o+o+o+o+o+o+o+o+o+o+o+o+o+o+o+o+o+o+o+o+o+o+o+o+o+o+o+o+o+o+o+(@Y+O+1@2@",
"<@ @x+3@o+o+o+o+o+o+o+o+o+o+o+o+o+o+o+o+o+o+o+o+o+o+o+o+o+o+o+o+o+o+o+o+o+o+o+o+o+o+o+o+o+o+o+o+o+o+o+4@^+O+5@6@",
"^@[@x+m+o+o+o+o+o+o+o+o+o+o+o+o+o+o+o+o+o+o+o+o+o+o+o+o+o+o+o+o+o+o+o+o+o+o+o+o+o+o+o+o+o+o+o+o+o+o+o+4@%@<+a+V+",
"7@O+x+m+o+o+o+o+o+o+o+o+o+o+o+o+o+o+o+o+o+o+o+o+o+o+o+o+o+o+o+o+o+o+o+o+o+o+o+o+o+o+o+o+o+o+o+o+o+o+o+4@%@U+8@9@",
"<@O+}@0@o+o+o+o+o+o+o+o+o+o+o+o+o+o+o+o+o+o+o+o+o+o+o+o+o+o+o+o+o+o+o+o+o+o+o+o+o+o+o+o+o+o+o+o+o+o+o+a@^+U+a+b@",
"c@ @>+d@o+o+o+o+o+o+o+o+o+o+o+o+o+o+o+o+o+o+o+o+o+o+o+o+o+o+o+o+o+o+o+o+o+o+o+o+o+o+o+o+o+o+o+o+o+o+o+e@^+U+8@f@",
"g@O+D+d@o+o+o+o+o+o+o+o+o+o+o+o+o+o+o+o+o+o+o+o+o+o+o+o+o+o+o+o+o+o+o+o+o+o+o+o+o+o+o+o+o+o+o+o+o+o+o+w+^+O+5@b@",
"g@O+D+(+o+o+o+o+o+o+o+o+o+o+o+o+o+o+o+o+o+o+o+o+o+o+o+o+o+o+o+o+o+o+o+o+o+o+o+o+o+o+o+o+o+o+o+o+o+o+o+h@%@U+i@V+",
"g@[@D+)+o+o+o+o+o+o+o+o+o+o+o+o+o+o+o+o+o+o+o+o+o+o+o+o+o+o+o+o+o+o+o+o+o+o+o+o+o+o+o+o+o+o+o+o+o+o+o+j@k@O+a+`+",
"g@O+q+R o+o+o+o+o+o+o+o+o+o+o+o+o+o+o+o+o+o+o+o+o+o+o+o+o+o+o+o+o+o+o+o+o+o+o+o+o+o+o+o+o+o+o+o+o+o+o+H+k@<+5@l@",
"m@n@P+o@o+o+o+o+o+o+o+o+o+o+o+o+o+o+o+o+o+o+o+o+o+o+o+o+o+o+o+o+o+o+o+o+o+o+o+o+o+o+o+o+o+o+o+o+o+o+o+p@}@y+h+l@",
"q@r@q+s@o+o+o+o+o+o+o+o+o+o+o+o+o+o+o+o+o+o+o+o+o+o+o+o+o+o+o+o+o+o+o+o+o+o+o+o+o+o+o+o+o+o+o+o+o+o+o+u+}@<+8+t@",
"u@O+v@[+o+o+o+o+o+o+o+o+o+o+o+o+o+o+o+o+o+o+o+o+o+o+o+o+o+o+o+o+o+o+o+o+o+o+o+o+o+o+o+o+o+o+o+o+o+o+o+w@q+<+e+]@",
"x@O+P+y@z@o+o+o+o+o+o+o+o+o+o+o+o+o+o+o+o+o+o+o+o+o+o+o+o+o+o+o+o+o+o+o+o+o+o+o+o+o+o+o+o+o+o+o+o+o+o+A@q+<+{@B@",
"  i@q+_@C@o+o+o+o+o+o+o+o+o+o+o+o+o+o+o+o+o+o+o+o+o+o+o+o+o+o+o+o+o+o+o+o+o+o+o+o+o+o+o+o+o+o+o+o+o+o+D@P+n@E@F@",
"  G@P+q+H@o+o+o+o+o+o+o+o+o+o+o+o+o+o+o+o+o+o+o+o+o+o+o+o+o+o+o+o+o+o+o+o+o+o+o+o+o+o+o+o+o+o+o+o+o+o+I@k+J@k+]@",
"  '@k+x+K@o+o+o+o+o+o+o+o+o+o+o+o+o+o+o+o+o+o+o+o+o+o+o+o+o+o+o+o+o+o+o+o+o+o+o+o+o+o+o+o+o+o+o+o+o+L@M@t+J@k+  ",
"  O+k+B+N@i+i+i+o+o+o+o+o+o+o+o+o+o+o+o+o+o+o+o+o+o+o+o+o+o+o+o+o+o+o+o+o+o+o+o+o+o+o+o+o+o+o+o+o+o+O@L+_@<+x+  ",
"  [@x+t+'+P@o+3+3+i+i+i+i+i+o+o+o+o+o+o+o+o+o+o+o+o+o+o+o+o+o+o+o+o+o+o+o+o+o+o+o+o+o+o+i+i+i+i+i+Q@R@_@8+<+k+  ",
"  5@D+B+U+d+S@T@U@V@W@X@Y@Z@H@`@p.i+i+i+i+i+i+i+i+o+o+o+o+o+o+o+o+i+i+i+i+i+i+z@ #.#+#@#X@W@##$#%#a+&#*#H.U+P+  ",
"    >+K+U.d+k+q+=#k+>+a+y+H.L+-#;#U+[+]+U+a+>#,#2+'#)#U+U+!#d+~#-#{#y+<+]#;+{+{#'+}+t+=#t+q+^#y+t+L+0+8+>+h+9+  ",
"      /#k+8@(#^+_#k+B+U+,#:#q+g+k+>+U.;#x+#+[+e+q+<#O+q+q+=#_@B+<+n@k+k+0+}+t+^#n@t+t+0+}+B+;#[#%@>+G+}#|#y+    ",
"        P+6+/#1#;#(#2#t+*#3#|#O+4#>+[#d+k+L+)#5#_@y+6#k+H.-#6+h+6#_#H.}+{#8+B+5@*#|+^+A+4#T+H.e+9+T+n@^+        ",
"                  4#|#x+8+9+9+;#(#>+a+M@}+5#7#U+6+;+'+}+8#/+2+<#'+[+8@6+I.8+V.8+8+|+2#9#0#>+*#                  ",
"                                    !# .a#b#:.c#b#o@_.b#5.F.d#S@e#f#-+s@g#h#                                    ",
"                                    -#<.2.,.i#2.s@j#I@]+]+7.I.]+S@d#R.k#l#m#                                    ",
"                                    n#j#]+X.o#>.X.S@j#'#R.o#>.X.j#]#R.]+p#q#                                    ",
"                                    I.o@;.2.-.S@,.'.1.-+;.-.S@,.e#1.r#r#s#~#                                    ",
"                                  F t#u#v#v#w#x#v#u#y#v#v#A@~+v#z#A#v#B#C#d                                     ",
"                              :@D#E#F#G#H#F#I#J#K#L#M#l+N#O#O#P#K#Q#P#R#L#S#T#U#V#                              ",
"            W#X#Y#6+Z#`# $.$+$@$#$$$%$&$%$$$#$$$) $$7 %$$$*$%$%$%$%$%$%$%$%$=$-$;$>$,$'$)$!$~${$]$              ",
"      C ^$/$($_$:$<$[$:$<$}$|$<$:$1$2$|$2$3$}$<$4$5$[$<$:$6$7$8$4$:$[$2$:$2$3$:$<$2$:$9$0$<$6$0$*$i Z#          "};
