/* XPM */
static char *b7a26119a4b141bbc9e164b6dbaed35e4GdHfMPewUtyKh4x[] = {
/* columns rows colors chars-per-pixel */
"64 64 256 2 ",
"   c black",
".  c gray97",
"X  c #DE00DE",
"o  c #FFEB3B",
"O  c #F8F8F8",
"+  c magenta",
"@  c #F9F9F9",
"#  c #D400D4",
"$  c #E200E2",
"%  c #DD00DD",
"&  c #DF00DF",
"*  c #FDFDFD",
"=  c #4B004B",
"-  c #FFEA38",
";  c #9C009C",
":  c #FBFBFB",
">  c #C800C8",
",  c #F6F6F6",
"<  c #FC00FC",
"1  c #C000C0",
"2  c #EF00EF",
"3  c #F800F8",
"4  c #1C001C",
"5  c #680068",
"6  c #A000A0",
"7  c #300030",
"8  c #F3F3F3",
"9  c #240124",
"0  c #FFE72B",
"q  c #262325",
"w  c #FFDB0A",
"e  c #CF00CF",
"r  c #A700A7",
"t  c gray87",
"y  c #4E014E",
"u  c #FFE11D",
"i  c #950195",
"p  c #333335",
"a  c #9A9D99",
"s  c #E600E6",
"d  c #C300C4",
"f  c #5E5005",
"g  c #E9E9E9",
"h  c #C5C5C5",
"j  c #2D2C2C",
"k  c #BA00BA",
"l  c #A4A7A6",
"z  c #0C0B07",
"x  c #707172",
"c  c gray96",
"v  c #686A68",
"b  c #FEFFFF",
"n  c #7B007B",
"m  c #AB00AB",
"M  c #E7E7E7",
"N  c gray84",
"B  c #ECC804",
"V  c #585756",
"C  c #3B3309",
"Z  c #BEC0C0",
"A  c #6F5D03",
"S  c #5A4B03",
"D  c #F400F4",
"F  c #D901D8",
"G  c #FFD702",
"H  c #EBECED",
"J  c #191607",
"K  c #545356",
"L  c #E0CE33",
"P  c #FAE435",
"I  c #474947",
"U  c #E4E5E5",
"Y  c #121117",
"T  c #21071C",
"R  c #FFE936",
"E  c #221819",
"W  c #6E006E",
"Q  c #4F504F",
"!  c gray94",
"~  c #24201A",
"^  c gray88",
"/  c #C0A102",
"(  c #DFBC04",
")  c #73630B",
"_  c #737774",
"`  c #450046",
"'  c #3C003C",
"]  c #540C4D",
"[  c #8B008B",
"{  c #570157",
"}  c #89898B",
"|  c #686145",
" . c #79670A",
".. c #FFDF0E",
"X. c #E0E3E4",
"o. c #88806B",
"O. c #927904",
"+. c #463F0E",
"@. c #665703",
"#. c #E4D538",
"$. c #443C2D",
"%. c #CCCDCC",
"&. c #2B260C",
"*. c #600460",
"=. c #FFF03C",
"-. c #9B8D1F",
";. c #F4DC29",
":. c #FFED2C",
">. c #FBD407",
",. c #605B19",
"<. c #9D896D",
"1. c #CCD4D7",
"2. c #E2C20D",
"3. c #605E5F",
"4. c #7C7D81",
"5. c #51450A",
"6. c #221D09",
"7. c #5B513F",
"8. c #D7C63C",
"9. c #C2AD88",
"0. c #DBC098",
"q. c moccasin",
"w. c #F6DAAE",
"e. c #D6BC95",
"r. c #C7CACB",
"t. c #6B386B",
"y. c #B200B2",
"u. c #710071",
"i. c #444344",
"p. c #820282",
"a. c #8D7605",
"s. c #B1B1B2",
"d. c #D0AF02",
"f. c #AE9404",
"g. c #09020C",
"h. c #D6B606",
"j. c #7E711F",
"k. c #B59F7E",
"l. c #225B66",
"z. c #967C4E",
"x. c #FFE3B4",
"c. c #F0D3A7",
"v. c #A3962B",
"b. c #796579",
"n. c #D0D0D1",
"m. c #888589",
"M. c #B7BABB",
"N. c #938E90",
"B. c #AFAEAE",
"V. c #797452",
"C. c #D5DBDE",
"Z. c #78767B",
"A. c #9C8500",
"S. c #563556",
"D. c #987E09",
"F. c #F5D30F",
"G. c #F5CE00",
"H. c #836F03",
"J. c #6F116C",
"K. c #140A11",
"L. c #CAB725",
"P. c #887620",
"I. c #6D6C6D",
"U. c #411D30",
"Y. c #8E0D88",
"T. c #876E40",
"R. c #3A3D37",
"E. c #C8A05E",
"W. c #0F4869",
"Q. c #646465",
"!. c #A08450",
"~. c #03859F",
"^. c #0E9DE2",
"/. c #B89167",
"(. c #FFDF9F",
"). c #666762",
"_. c gray81",
"`. c #711557",
"'. c #A99B25",
"]. c #838082",
"[. c #B2B5B7",
"{. c #DED8C3",
"}. c #AB8D52",
"|. c #B3A427",
" X c #92714D",
".X c #383124",
"XX c #6A5734",
"oX c #99949C",
"OX c #917F27",
"+X c #EECA8E",
"@X c #662A2E",
"#X c #063245",
"$X c #7F1571",
"%X c #1375B4",
"&X c #6A4E3A",
"*X c #001F30",
"=X c #2D484F",
"-X c #576D2B",
";X c #665946",
":X c #89D3E6",
">X c #195A93",
",X c #C934A3",
"<X c #BBA483",
"1X c #C512B7",
"2X c #79C3A8",
"3X c #58BAB6",
"4X c #954E42",
"5X c #7F6F59",
"6X c #EC4F56",
"7X c #EB2A67",
"8X c #7C807C",
"9X c #6D586D",
"0X c #CCAB00",
"qX c #747363",
"wX c #F5F6F7",
"eX c #BB9C00",
"rX c #8C8334",
"tX c #533315",
"yX c gray83",
"uX c #637482",
"iX c #44ADF7",
"pX c #C8AC09",
"aX c #7E8386",
"sX c #321A2C",
"dX c #445C4A",
"fX c #AE8F58",
"gX c #73BEDE",
"hX c #574925",
"jX c #E6CAA1",
"kX c #70AAA4",
"lX c #EBCD9E",
"zX c #E41CCC",
"xX c #B87653",
"cX c #6B216A",
"vX c #F7A1CE",
"bX c #3A0A4B",
"nX c #FDBD0E",
"mX c #416A81",
"MX c #FFE4B6",
"NX c #AD3AB3",
"BX c #DCB878",
"VX c #A0CCAA",
"CX c #45A7D0",
"ZX c #C7960C",
"AX c #FFE8B8",
"SX c #F77844",
"DX c #81AFAD",
"FX c #381B5C",
"GX c #F17293",
"HX c #79C071",
"JX c #EE9B7A",
"KX c #DB8227",
"LX c #EA6B32",
"PX c #0D7478",
"IX c #7F6D2E",
"UX c #D6B678",
/* pixels */
"                    . . . . . . . . . . . . . . . . . . . . . O O O . . . . . . . . . . . . . . . . . . . .                     ",
"                    . . . . . . . . . . . . . . . . . . . . . H X.M , . . . . . . . . . . . . . . . . . . .                     ",
"                    . . . . . . . . . . . . . . . . . . . c . 4.q V H , , . . . . . . . . . . . . . . . . .                     ",
"                    . . . . . . . . . . . . . . . . . @ t v N Q.  p ^ x Z : . . . . . . . . . . . . . . . .                     ",
"                    . . . . . . . . . . . . . . . . @ yXI.z Q.p   E x Y K M.O . . . . . . . . . . . . . . .                     ",
"                    . . . . . . . . . . . . . . . . : l z C z &.+.C   C z x : . . . . . . . . . . . . . . .                     ",
"                    . . . . . . . . . . . . . . . . g oXR.8.5.O.nXZXC h.,.x X., . . . . . . . . . . . . . .                     ",
"                    . . . . . . . . . . . . . . . @ ].=XgX:X8.LX7X6XL P VXmXV 8 . . . . . . . . . . . . . .                     ",
"                    . . . . . . . . . . . . . . . @ x #XiX:X#.SX7X6XP u 2X>Xi.8 @ . . . . . . . . . . . . .                     ",
"                    . . . . . . . . . . . . . . . O h uXW.l.,.@X4XKX) @.=X*XE Q.I.N : . . . . . . . . . . .                     ",
"                    . . . . . . . . . . . . . . . @ r.o.f S f f  .O.f S S f f S f o.n.: . . . . . . . . . .                     ",
"                    . . . . . . . . . . . . . O . yXqX) G w 0 u f.f F.w w w w w >.@.o.C.O . . . . . . . . .                     ",
"                    . . . . . . . . . . . . 8 U t V OXP - - o o ;.F.R - - - - - R F.A V M , . . . . . . . .                     ",
"                    . . . . . . , c . . . @ Z p j v.;.o o o o o - R o o o o o o o -  .z Q M . . . . . . . .                     ",
"                    . . . . . @ [.x ! : b B.| v.'.#.=.o o o o o o o o o o o o o o o L.f.-.3.N @ . . . . . .                     ",
"                    . . . . . : h Z.4.4.4.V.-.o =.o o o R u u 0 o o o o o o o o o o 0 :.8.J h @ . . . . . .                     ",
"                    . . . . . O t a 5.+.+.-.=.o o o o o R ..G u 0 0 o o o o o o 0 0 - #.v.V yX@ . . . . . .                     ",
"                    . . . . . : l +.d.;.P R o o o o o o o - w B h.2.0 o o o o P ( ( ;.|.$.h ! . . . . . . .                     ",
"                    . . . . . O H B.C h.0 o o o o - - - - - >.) J 5.B 0 - o 0 ( C J -.u / .X%.@ . . . . . .                     ",
"                    . . . . . @ s.7./ ;.- o o o o u w ..u P A T.E.!.5.2.....pX5.}.&.a...d.6.h @ . . . . . .                     ",
"                    . . . . . @ n.o. .B R o o - u w f.@.H.#.C z.(.+Xz.A @.@.)  XXXJ O.d.) N.X.O . . . . . .                     ",
"                    . . . . . . : t ).O.2.0 0 u >.eX ..X&.L C z.(.lX!.;X7.7.| z.7.Y S P.Z.! @ . . . . . . .                     ",
"                    . . . . . . . O g V D.0Xh.w >.+.T.fX&.L C <.AX9.~ e.x.q.k.~ 0.$.  V . . . . . . . . . .                     ",
"                    . . . . . . . . , H V z f P P S T.!.&.L +.o.w.9.~ e.x.q.k.~ 0.$.  Q M , . . . . . . . .                     ",
"                    . . . . . . . . . c K S 2.R - L j.J &.#.L ,.5X9.~ e.x.q.k.q 0.$.  z Q g O . . . . . . .                     ",
"                    . . . . . . . O H x P.h.0 o o =.j.*XPX,.L ,.7.c.k.w.q.x.jX<Xc.$.f A j U O . . . . . . .                     ",
"                    . . . . . . . O U q -.:.=.o R '.dX%X^.l.-XIX/.x.w.<.5X<XMXw.o.l.-Xj.N.! O . . . . . . .                     ",
"                    . . . . . . . O H v rX|.L.- - j.l.%X^.~.FX4XUX(.c.;X$.<.c.<.Y ~.W.K O . . . . . . . . .                     ",
"                    . . . . . . . . 8 N | 6.@.;.L 8.,.#X~.Y r W &XBX0.e.e.0.<.9 9 >XW.I.. . . . . . . . . .                     ",
"                    . . . . . . . O M I D.( B ( C E K.g.Y g.4 i i E E E ~ ~ ] k 1 bX4.^ ! , . . . . . . . .                     ",
"                    . . . . . . . . 8 h | D.d.tXm y.r r r r r 5 u.k r r xXL.OXy $ 1 cXR.3.g O . . . . . . .                     ",
"                    . . . . . . . . . @ K A / T e D D D D D D k p.[ F GXl 2XHXP.J.# ,XhXj U O . . . . . . .                     ",
"                    . . . . . . . . . , K A / T 1 3 + + + + + + i 9 1X8.3X^.3XL 6.NXvX<.j M O . . . . . . .                     ",
"                    . . . . . . . . . , K A / T d 3 + + + + < e $XU.Y./.kXCXDXE.6.l X.} j M O . . . . . . .                     ",
"                    . . . . . . . . . , K A / E y.D + < < < F { &XE.sXY./.#.JX1XT M.U aXR.M O . . . . . . .                     ",
"                    . . . . . . . . . , V A G./ U.1 D $ s 2 { g.XX+Xl U.$X,XzX1 T Z m.3.yX8 . . . . . . . .                     ",
"                    . . . . . . . . . . h V.H.G.f.@X= ` ` {  X}.9.{.1.s.S.n > m T Z x K O . . . . . . . . .                     ",
"                    . . . . . . . O : : b } J a.B A.)  .@.J 9.w.{.C.H * l t.{ y K.[.v Q , . . . . . . . . .                     ",
"                    . . . . . . O g s.B.s.3.z S 2.G w B A.J _ Z C.X.* * b l j     x v m., . . . . . . . . .                     ",
"                    . . . . . . @ _.p z J 6.S G.G G B D.T 4 9 Z.M.r.wXc O H l q     } O . . . . . . . . . .                     ",
"                    . . . . . . . 8 n.p a.( B G G >.H.] > > > *.Y i.r.1.1.1.1.Z E   } : . . . . . . . . . .                     ",
"                    . . . . . . . O 8 h | O.w G >.) `.d 3 3 3 > r Y.p p p p p S.i 9 } : . . . . . . . . . .                     ",
"                    . . . . . . . . . @ [.V.O.B  .`.k 3 + + + 3 D F p.n n n n [ # ; t.a @ . . . . . . . . .                     ",
"                    . . . . . . . . . . * M.| a.] d < + + + + + + + 2 2 2 2 2 2 2 2 6 t.l ! . . . . . . . .                     ",
"                    . . . . . . . . . O N h oXy e 2 % F 3 + + < s # 2 < + < D s e s D i j M O . . . . . . .                     ",
"                    . . . . . . . . , M 3.K.] s D 1 *.*.s 3 < 2 [ 7 y.D + D F r 7 p.y.n j yX8 . . . . . . .                     ",
"                    . . . . . . . O g Q J.i 6 1 k = n $ D s $ D i 9 y.D + < 2 e i ' W m p.p _.@ . . . . . .                     ",
"                    . . . . . . . @ g j W d > r = n d 2 s & X [ 7 9 y.D + + < 2 y.9 u.e i Y r.: . . . . . .                     ",
"                    . . . . . . @ U ].J.r # # 6 4 6 $ % X X $ { 4 W > 3 D 2 2 2 > u.5 [ 6 *.b.%.@ . . . . .                     ",
"                    . . . . . O t N.] d $ & # 6 4 ; $ X X % m { 5 > & D s % X X % d = ' 1 m 9 a : . . . . .                     ",
"                    . . . . . : a 7 e X X & # 6 4 ; $ X & # 7 5 d % X & X X X X % 1 = = # m 9 a : . . . . .                     ",
"                    . . . . . : a 7 e & X & # 6 4 ; $ X & # 7 5 > X X X X X X X % 1 = y # m 9 a : . . . . .                     ",
"                    . . . . . : a 9 e & X & # 6 4 ; $ X & # 7 5 > X X X X X X X % 1 = y # m 9 a : . . . . .                     ",
"                    . . . . O l t.i F X X & # 6 4 ; $ X & # 7 5 > X X X X X X X % 1 = y # m 4 a b . . . . .                     ",
"                    . . . . @ ).= $ X X X & # 6 4 ; $ X & # 7 5 > X X X X X X X % 1 = = F k *.b.h O . . . .                     ",
"                    . . . . @ v y & X X X & # 6 4 ; $ X & # 7 5 > X X X X X X X % 1 = = % % k ' v @ . . . .                     ",
"                    . . . . @ _ ] e % X X & # 6 4 ; $ X & # 7 5 > X X X X X X X % 1 = = % % k ' v @ . . . .                     ",
"                    . . . . . U m.= e % % % # 6 4 ; $ X & # 7 5 > X X X X X X X % 1 = = % F k ' v @ . . . .                     ",
"                    . . . . . @ t } = ` ` ` *.; 4 6 s $ $ # 7 5 > X X X X X X X % d = y d y ' b.%.O . . . .                     ",
"                    . . . . . . @ X.8X_ _ _ 9Xy g.y u.W W 5 4 5 > $ $ $ $ $ $ $ % n 9 9 J.x _ r.: . . . . .                     ",
"                    . . . . . . . O @ @ @ * %.Q I I I I I i.z ` [ ; ; ; ; ; ; ; i S.I i.v ! : O . . . . . .                     ",
"                    . . . . . . . . . . . . , 8 8 8 8 8 8 M Q ~ q q q q q q q q j Z c 8 8 . . . . . . . . .                     ",
"                    . . . . . . . . . . . . . . . . . . . , U t t t t t t t t t t ! O . . . . . . . . . . .                     ",
"                    . . . . . . . . . . . . . . . . . . . . O @ @ @ @ @ @ @ @ @ @ . . . . . . . . . . . . .                     "
};
