/* XPM */
static char *f05be68b18bf43189e24b666e7dbdaccj9BEbbXqKYmhGkoT[] = {
/* columns rows colors chars-per-pixel */
"64 64 65 1 ",
"  c #D7510C",
". c black",
"X c white",
"o c #2B1004",
"O c #D4500B",
"+ c #E2550C",
"@ c #361404",
"# c #EA580D",
"$ c #CD4D0C",
"% c #250E03",
"& c #F7FAFC",
"* c #C3490B",
"= c #0C0402",
"- c #8C3509",
"; c #2F1306",
": c #DB530D",
"> c #1D0A03",
", c #AC410A",
"< c #3B1605",
"1 c #742C08",
"2 c #150702",
"3 c #592206",
"4 c #411905",
"5 c #C74B0B",
"6 c #471B05",
"7 c #301103",
"8 c #D14F0C",
"9 c #602406",
"0 c #531F05",
"q c #B3440B",
"w c #BC470B",
"e c #7C2F08",
"r c #6C2907",
"t c #993A09",
"y c #843108",
"u c #652607",
"i c #933708",
"p c #A53E0A",
"a c #4D1C05",
"s c #A03C09",
"d c #EBEBEA",
"f c #C55013",
"g c #F4F3F3",
"h c #F8FEFF",
"j c #F7EAE3",
"k c #EBDDD6",
"l c #DE9C7A",
"z c #D2D5D7",
"x c #C6CBCD",
"c c #D64400",
"v c #DBDEE0",
"b c #686F72",
"n c #752000",
"m c #E7A380",
"M c #8E7E76",
"N c #BA8F78",
"B c #A3897C",
"V c #CE4200",
"C c #636A6E",
"Z c #CC997F",
"A c #C23E00",
"S c #B63900",
"D c #A1400F",
"F c #5E676C",
"G c #5F686C",
/* pixels */
".XgdXgdXddXdgXdgXdgXd&&d&&dX&dXgdXgdXgdXdgXdgXdgXd&Xd&&d&&dXgd..",
".g&&&&&&h&&&&&&&&&&&&&&h&&&&&&&&&&&&&&&&&&&&&&&&&&&&h&&&&&&&&g..",
".djjkjjkjvkjjkjkzjkkjkkdkkjkkjzkjkjjkjvkjjkjjzjkkjkkdkkjkkjzdX..",
".XmAfffOt<8fffff;qffff 6- fff:13:fff8D<ffffff;qffff:6y fff:rbX..",
".hmc OO+s@+OOO $o*:OOO+4-+8O8#13#8OO+p@:OOO 8ow:OOO+6y+8O8#nbX..",
".hNney1e32e1ee11=reee1e>ae1y1y<oy1yee32e1ee11=ueey1y>6e1y1y7bX..",
".XB70=<aa0602%0606ao=060aa4.66a06a=@aa060>%060aa;=a60aa4.6a<M&..",
".hmc:@,+OO8#31#8O8+-6+OOO:w;8 OOO:@p+OO8#91#8O8+i4+OOO:*o$:VlX..",
".hlV 7p $$$+01+$$$:y4+$$$Oqo$8$$$ @s:$$$+3r+$$$:-4:$$$Owo5OVlX..",
".XB><=o<@<@<2><@<@<%=<@<<<7=@@<<@<=o<@<@<2><@<@<%=<@<<@;=@<%Mh..",
".hNyit-ir>i-ii--2eiii-t%3t-t-t6@t-t-ir>i-ii--2eiit-t%3t-t-s<bX..",
".hmc:  #p<+   :8;*+   #6i#   #19#   +,@+:  : 7w+   #a-#   #nbX..",
".XZi,,p,e%,p,,ps>i,,,pq;rqp,pq04qp,p,y%,p,,pp>i,,,pq;uqp,pqaFX..",
".XM2;=%oo%o72>oo%oo>2oo%%o%=oo%%oo=%oo%o72>7o%oo>2oo%%o%=o;2MX..",
".hlAfos$*5*OarO*5*8e48*5*5,%w****$;t$*5*O0uO*5*8y<8***5q%wfAlh..",
".Xmc+@q+   #3e#O  #-6#   +*;O:   +@,+  O#91#O  #i4#   :5;$:cl&..",
".hBar=auur9r>7r9r9r<2r9ruu0=99rr9u=auur9r%or9rur42r9ruu3=9u0NX..",
".XBa9u394=939933=039u392@93u39o>u3u394=939933=a39u392@93u3u>CX..",
".Xmc:OO+p<+   :8;*: OO#6i#OOO#13#OOO+,@+   :O7w+ OO#a-#OOO#nCX..",
".&lA$55Ot;8555$*%q$555 <y 55*:r0:*558s7$5555*o,$55* 4e 555:nbX..",
".XM2;oo7%=77oo;o=o;ooo;=>7ooo;>2;ooo7%=;7oo7o=%;ooo;2>;ooo@=bX..",
".XZiD>epspt,<0,sps,u7,tpsp->tsppsp>epspt,4a,tps,ro,tpssi>tDiNh..",
".&lc+@q+   #3e#   #-a#   +*7O:  :+<,+   #91#   #t6#   +5;8+cmX..",
".XZys>1ttsip@apisis9opistty2itttit>1stsip<apisisu%sistt-2-t-Nh..",
".XM>@@;@%=@;@@@7=o@@@;@=%@;@;@>2@;@;@%=@;@@;;=o@@@;@=>@;@;<=bX..",
".&lV8$$ t@O$$$$5ow8$$5:4-:$$5:r3:5$$ s;O$$$$5oq8$$5:4y:5$5+nbX..",
".Xmc:OO+p<+OOO $7*:OOO+6i+OOO#13#OOO+,@: OO O;w:OOO#a-#OOO#nCX..",
".XB<0300<=0a330a.6003a3=;30303%>3a300<=0a330a.6003a32;303032CX..",
".&B31=01r1r1%@1r1r14>1r11r9=rr11r1=01r1r1%;1r1r1621r11r9=u19NX..",
".Xmc+@q+   #3e#   #-a#   +*7O:   +@,+   #91#   #i6#   +5;8:cl&..",
".hlS5ot5w*w$ar$w*w$e<$w*w*,%w*w*w5oi5w*w8au$w*w$y@$w*w*,%q*Slh..",
".XM2;2%o%>oo2>o%>%o>2oo>%o%2%o%%oo2%o%>%o2>o%>%o>2oo>%o%2%;=MX..",
".XZsqq,wy%q,qqqp>tqqq,w;1w,q,w36w,q,q-%q,qq,,>tq,q,w@rw,q,w0GX..",
".hmc:  #p<+   :8;*+   #6i#   #19#   +,@+   : 7w+   #a-#   #nbX..",
".hNny-y-92-y--ye=1yy-y->0-y-yi47iy-y-u2-y--yy21yy-y-%0-y-yi7bX..",
".XB%6=7444<42>4<4<4%=4<444@.<<44<4=;444<42>4<444%=4<444@.<47Mh..",
".hmV:;,:88$+01+$8$+-6+$88 wo$O888:@p:88$+3r+$8$+-4+888 wo5 VlX..",
".&lV:;,:888+31+888+-6+888 wo$O888:@p:888+3r+888+i4+888 *o$:VlX..",
".XB76=@446462>64646%=64644<.446644=;646462>64646o=64664<.467M&..",
".hNny-yy92yeyyee=1yy-e->0-e-e-4o-e-yy92yeyyee=ryy-e-%a-e-e-7bX..",
".hmc:  +p<+   :8;*+   #6i#   #19#   +,@+   : 7w+   #a-#   #nbX..",
".XlSqqqwyowqqqq,>sqqq,w@1wqq,*36*,qqw-%wqqqq,>tqqq,*@rwqq,*0FX..",
".XM2;2%o%>%o>>o%>%o>2oo>%o%2%o>>o%2%o%>%o>>o%>%o>2oo>%o%2%;=MX..",
".hlS*%t*www$6u$www5e<$www*p%qwwww*oi*www$a9$www5e@5www*,%q*SlX..",
".Xmc+@q+   #3e#   #-a#   +*7O:   +@,+   #91#   #i6#   +5;8:cl&..",
".hB91=311ere%<ere1e4>ere119=r11er12011ere%@ere1e62ere11u=r1nNX..",
".XB@03a0@=0a00aa.4a00a0=;0a3a0%>0a3a0<=0a00aa.4a00a02o0a3a32bX..",
".Xmc:OO+p<+OOO $o*:OOO+4i+OOO#13#OOO+,@:OOO 8;w:OOO#a-#OOO#nCX..",
".&lV8$$ t@ $$$85owO$$$:4-:$$$+r3+$$$ p;O$$$$$oqO$$$:6y:$$$+nbX..",
".XM><@@@%=@@@@@@=;@@@@<=%<@@@<>2<@@@@o=@@@@@@=7@@@@<=><@@@4=bX..",
".XZyt>1tit-s@asitit3%s-tiie2-ittit>rtit-s@6s-tit9%t-tiiy2-iyN&..",
".&lc+@q+   #3e#   #-a#   +*7O:   +<,+   #91#   #t6#   +5;8+cmX..",
".XZi,>y,p,sq<3qs,s,u;qs,pp->spp,s,%e,p,sq40qs,s,ro,s,ppi>tptZh..",
".XM2;%o;%=7ooooo=%oooo;2>;o%o;>2;o%o7%=oooooo=%oooo;2>;o%o@=bX..",
".&lA55*8t;$*555w%q$55*O<yO*5* r0 *5*$t;$*555*%,$55*O4eO*5*:nbX..",
".Xmc:O +p<+   :8;*:   #6i#OOO#19#OO +,@+   :O7w+   #a-#OOO#nCX..",
".XBaur9u4=u3uu93=09uu3u2<u9r9uo>r3r9u6=99uu99=099r3u2@u9r9r>CX..",
".&Bau=699r3u>;u9r9u@2u3u990=39uu39=699r3u>ou3r9u<2u3u990=3uaNX..",
".Xmc+@q+  O#3e#O O#-6#   +*;O:   +<,+  O#91#O  #i4#   :5;8:cl&..",
".XlA$os$*5* ar *5*Oe4O*5*$,%*5*5*$7t8*5* 0u *5*Oy<O*5*5q%w$Alh..",
".hM>;=%;;;;;2>;;;;;>2;;;;;o=;;;;;;=%;;;;;2>;;;;;%2;;;;;o=;;2MX..",
".Xvxvzxvxxvxzvxzvxzvxzzxzzxvzxvzxvzxvxxvxzvxzvxzvxzzxzzxvzxzvd..",
".g&XX&XXXXXX&XXXX&XX&XXXXXXXX&XX&XXXXXXXX&XXXhXXX&XXXXXXXXXX&g..",
".dgXd&&d&&dh&dXgdXgdXgdXddXdgXdgXdghd&&d&&dhgdXgdXgdXddXdgXdgX.."
};
