/* XPM */
static char *_87a3e05d7c147def88302200ad0e74fJLgNwwu9Jy4rMgsJ[] = {
/* columns rows colors chars-per-pixel */
"64 64 164 2 ",
"   c black",
".  c white",
"X  c blue",
"o  c #F6F6F6",
"O  c gray96",
"+  c #FF0001",
"@  c gray97",
"#  c #FB0001",
"$  c #F4F4F4",
"%  c #F4F3F3",
"&  c #FAF9F9",
"*  c gray98",
"=  c gray92",
"-  c #F90001",
";  c #FEFBFB",
":  c gray99",
">  c gray95",
",  c #F1F1F1",
"<  c #EFEFEF",
"1  c #FDFDFD",
"2  c gray94",
"3  c #F8F8F8",
"4  c gray93",
"5  c #020202",
"6  c #FEFFFF",
"7  c #EEEEEE",
"8  c #ECECEC",
"9  c gray51",
"0  c #6A696A",
"q  c gray48",
"w  c #E1E1E1",
"e  c gray2",
"r  c #FDC990",
"t  c #FFD99C",
"y  c #070907",
"u  c #F60003",
"i  c #E7E7E7",
"p  c #898989",
"a  c #6F6F6F",
"s  c #D8D8D8",
"d  c #585757",
"f  c #0E0C0B",
"g  c #0200EE",
"h  c #FD0001",
"j  c #0E0000",
"k  c gray49",
"l  c #000014",
"z  c #E20103",
"x  c #101010",
"c  c #EF0103",
"v  c #CA0202",
"b  c #190101",
"n  c gray75",
"m  c #DDDCDC",
"M  c #FFCF95",
"N  c #8C0303",
"B  c gray46",
"V  c #040289",
"C  c #4E4E4E",
"Z  c #5F5E5E",
"A  c #8B7052",
"S  c #0300F4",
"D  c #83694C",
"F  c #D2D2D2",
"G  c #840202",
"H  c gray9",
"J  c #300101",
"K  c gray52",
"L  c #3E3D3D",
"P  c #060382",
"I  c #EDBA82",
"U  c #0100FA",
"Y  c #834F1F",
"T  c #7A491F",
"R  c #7A0305",
"E  c #393636",
"W  c #19120C",
"Q  c #710305",
"!  c #6E5844",
"~  c gray63",
"^  c #656464",
"/  c #947656",
"(  c gray72",
")  c #959595",
"_  c #492A12",
"`  c #F8C58D",
"'  c #9A9A9A",
"]  c #D90101",
"[  c #925826",
"{  c #C6C5C5",
"}  c gray80",
"|  c #FFE9A8",
" . c #940305",
".. c #775858",
"X. c #000018",
"o. c #F6FFFF",
"O. c #8E8E8E",
"+. c #220000",
"@. c #FFE0A2",
"#. c #910A08",
"$. c #2B261D",
"%. c #53331A",
"&. c #A10506",
"*. c #FFCC25",
"=. c #8F5420",
"-. c #9C5E28",
";. c #24201C",
":. c #FBE2C6",
">. c #640208",
",. c #F31B1B",
"<. c #09016F",
"1. c #6F4316",
"2. c #FD090A",
"3. c #7F6449",
"4. c #821413",
"5. c #1C1A17",
"6. c #2D2D2D",
"7. c #F77878",
"8. c #FDE7E8",
"9. c #C6915C",
"0. c #B58353",
"q. c #F4C188",
"w. c #A9A9A9",
"e. c #765F46",
"r. c #13191A",
"t. c #840174",
"y. c #F0B5B5",
"u. c #640198",
"i. c #3D2410",
"p. c #FD4330",
"a. c #3D0303",
"s. c #97761E",
"d. c #FBC1C1",
"f. c #EB6B1F",
"g. c #801F89",
"h. c #F6BABA",
"j. c #6B048F",
"k. c #CA955F",
"l. c #323030",
"z. c #EFB523",
"x. c #6E008A",
"c. c #E0C1C1",
"v. c #9B0304",
"b. c #D7AC7C",
"n. c #E6CEB2",
"m. c #DF6666",
"M. c #E6F6F7",
"N. c #000090",
"B. c #F38C8C",
"V. c #EB8283",
"C. c #870174",
"Z. c #780175",
"A. c #810275",
"S. c #664BAA",
"D. c #6A4F98",
"F. c #233131",
"G. c #750185",
"H. c #8D2324",
"J. c #E2B380",
"K. c #F6292A",
"L. c #E6F9FA",
"P. c #E28383",
"I. c #E8F8F8",
"U. c #F70D0E",
/* pixels */
"      . > 2 . 8 @ 1 = 6 o 4 . < $ . = * 3 i 1 < 4 1 = O * i ; % = . 8 , 1 = * & = . > 2 . 8 @ 1 = 6 o 4 . < $ . = * & =         ",
"      > @ @ > & O % & % o 3 > 3 o % & % * . . . . . 6 o.o.o.o.o.o.o.6 . * 3 $ $ & > @ @ > & O % & % o 3 > 3 o % & $ $ &         ",
"      2 @ 3 2 * O > * > o * 2 & o , 3 $ F n ( n n ( c.h.y.d.y.h.d.y.c.( } : , $ * , @ 3 2 * O > * > o * 2 & o , * % $ *         ",
"      . > , . 4 @ : = 6 o 7 . < $ 6 7 . q           Q + u - - - u + G   a . 1 3 8 . > 2 . 4 @ : = 6 o 7 . < $ . = * & =         ",
"      8 & * 4 1 $ 2 . < o : 8 * O < m { ..J a.a.a.J v.+ u - - - u + &.+...} } @ 1 4 & * 4 1 $ 2 . < o : 8 * @ 7 . , % .         ",
"      @ O O @ $ o @ $ @ o $ @ $ @ . B   G + h + + + h - - - - - - - - + N   0 . 2 @ O O @ $ o @ $ @ o $ @ O O @ $ o o $         ",
"      1 % > : 2 @ * < * o , * > F F ..+.&.+ u - - - - - - - - - - - ,.p.H.  B . = : % > : 2 @ * < * o 2 1 , $ * < & 3 <         ",
"      = & * = . $ < . 4 o 1 4 . q   G + - - - - - - - - - - - - - - 7.. O.  0 . : = & * = . $ < . 4 o 6 = : @ 8 . 2 > .         ",
"      6 % > 1 < @ * 7 : % , m } ..+.&.+ u - - - - u - - - - - - ,.K.B.. p   B . i 1 % > 1 < @ * 7 * o 2 6 , $ : 7 & 3 4         ",
"      o O O o O o o O O @ . a   G + - - - - - - + + + + + + + + 7.. . . )   B . @ O o O o O o o O o o O o O o o O o o O         ",
"      4 3 * 4 1 $ , : 2 s F ..b &.+ u - - - - # z v v v v v v v m.s { s B   d } m < o * 4 1 $ 2 6 < o : 4 * @ < 6 > % 6         ",
"      . > 2 . 8 3 : 4 . B   N + - - - - - - # + G                           5   0 . $ 2 . 8 @ : = 6 o 7 . < $ . = * & =         ",
"      < 3 & < * > % m } ..b &.+ u - - - u # z ] >.  b J J J J J J J J J J J J +...} s & 4 * O > : , o * < * @ 2 : % % :         ",
"      % o @ $ @ @ . a   N + u - - - + + + + R       R + + + + + + + + + + + + +  .  0 . O @ O $ 3 $ o @ % @ o $ 3 O O 3         ",
"      . > , 6 , m s ..b &.+ u - - # z v v ] R +.J +.R ] v v v v v v v v v v ] + N   d F w , o * 8 1 o < . 2 $ 6 8 * & 8         ",
"      = & * i . a    .+ u - - - # + Q       G + h + G                       Q + N       Z . 2 < . 7 o 1 = : @ 4 . , > .         ",
"      * $ % o . 0   N + u - - # z ] 4.$.$.$.4.] v ] >.  W $.$.6.6.6.$.$.W   >.c 4.F.6.5.K . % & , & o > * % O * , 3 @ ,         ",
"      * $ $ o . 0    .+ - - # + R   D t ` t e.    5     e.t :.. . . :.t A   5   ^ . % @ * > o 3 > & o % * % O & > 3 @ ,         ",
"      = & * i . a   R ] z + z ] Q   / t ` t / 5.W   W 5./ M :.. i F n.t A   H 5.9 & $ * 8 6 $ < . 7 o 1 = : @ 4 . , > .         ",
"      . > , * . Z       G + Q   %.=.9.M r r r t D   D t r r :.. p   e.| A   q . % . @ 2 . 4 @ : 8 1 o 7 . 2 $ 6 8 * & 8         ",
"      % @ @ < . k 5.H   G + Q   %.=.9.M r r ` t D   D t r r :.. p   e.| A   Z m } } w @ , 3 O $ & % o 3 % @ o % 3 $ O &         ",
"      2 3 3 2 * , . 0   N + Q   %.=.k.t M M r t D   D t r ` :.. p   ! | D           0 . , * O > * , o * 2 & @ , * % $ :         ",
"      . > 2 . 8 $ . q r.4.c >.  _ 1.0.q.I I q.t D   D t r r n.i 9 e A @./ W ;.;.;.W ^ s i < @ : = 6 o 7 . < $ . = * & =         ",
"      4 & * 4 1 $ 2 & . 0   e   5   _ -.[ Y 9.@.3.  3.t ` t A   3.@.M M M M M M r @./   0 . 2 2 6 < o : 4 * @ 7 6 , % .         ",
"      @ O O @ O o o , . a   e       i.Y T 1.0.@./ e / t ` t A   ! I b.b.J.I I I I r A   0 . > o O o o O @ O O o O o o O         ",
"      1 % > 1 < @ * = . 0             5 5   D @.r r r r r t D     5 5   _ -.=.[ =.-.%.  ^ . % * 7 * o 2 1 , $ : 7 & 3 7         ",
"      = & * = . $ < 1 1 q H x   5 5     y   3.` q.M r r r t / W W   5   i.Y T T T Y %.x B . , < . 4 o 6 = : @ 8 . 2 > .         ",
"      1 % > 1 < @ * 7 * 2 . a           _ -.[ Y k.t M M M r ` t D         5 5 5 5   Z . @ 2 @ * 7 * o 2 1 , $ : 7 & 3 7         ",
"      @ O O o O o o O o % . 9 x ;.;.x   i.Y T 1.0.` I I q.r r t / f W           x x q . $ O o o O o o O o O O o O o o O         ",
"      4 & * 4 1 $ 2 6 < O : = $ > . B   5   5   _ -.[ Y 9.t M M r t A   5   e   0 : > & 4 1 $ 2 6 < o : 4 * @ 7 6 , % .         ",
"      . > 2 . 8 @ : = 6 o 7 . , w 4 0 l f b b b _ Y T 1.0.` I I I r D   y   e   0 . 7 < . 4 @ : = 6 o 7 . < $ . = * & =         ",
"      2 3 3 2 * O > : , o * < . q   P X g.p.,.+ R 5 5   _ -.[ [ [ [ =.[ _       0 . & . $ * O > : , o * 2 & @ , * % $ :         ",
"      % @ @ % 3 O $ 3 $ $ 3 m = 0   P X g.p.,.+ N j +.b _ Y T T T T T Y %.r.;.x a i s s w 3 $ $ 3 $ o 3 % @ o % 3 $ O 3         ",
"      . > , . 4 @ : 8 : O . k   V X A.+ c - - - u c c + R 5 5 5 5 5 5   a . 7 . p   f   a . @ * 8 1 o 7 . 2 $ 6 8 * & 8         ",
"      = & * = 6 $ < . 7 w 2 Z   V X t.+ u - - - # # - + N j +.b b b W y 9 . & . ' y H   d < w 2 . 7 o 1 = : @ 4 . , > .         ",
"      * $ $ * > o 3 , . B   e   P X t.+ u - - - - - - - u c c c c c 7.6 & 1 1 6 o . O.  f   a . , 3 o > * % O & , 3 @ ,         ",
"      * $ % * > o * w 7 a e f   P X t.+ u - - - - - - - # h h h # h m.M.7 6 : : * . )   y   Z < m & $ > * % O & , 3 @ ,         ",
"      = & * = 6 2 . q   A @.!   V X C.+ - - - - - - - - - - - - u + #.  q . . . . . )   5   5   a . O 1 = : @ 4 . , > .         ",
"      . > , . 7 % . 0   A | !   V X Z.c c - - - - - - - - - - - u +  .  0 @ w i w @ K   f W W 5 Z , w < 1 7 % 6 8 * & 8         ",
"      % o @ % 3 , . a   A | !   V X <.  N + # + h - - - - - - - # + u + N y f f f f y   1.*.z.*.s.  a . O : & % 3 $ O 3         ",
"      < 3 & < * , . a   A | !   V X P 5 Q u z z c - - - - - - - c z z - R l l l l l y e Y *.z.*.s.  Z o s i = 2 * % % :         ",
"      . > 2 . 8 $ . 0   A | !   V X g X <.j j   G + # + + + # + N   j j <.X g g g X D.*.f.+ #.y e     y f   ^ . = * & =         ",
"      4 3 * 4 * < . B   A | !   V X U X V   X.l Q u z z z z z u R l X.  P X X X X X S.*.f.+  .  y x x x x e Z = 4 % > 6         ",
"      o o O & * o . a   A | !   V X U X S g g X <.j j j j j j j <.X g g S X X X X X S X j.+  .  Z 1 i 8 i O '   0 . % O         ",
"      6 % % % m w & ^   D t !   V X U X X X X X V   X.l l l X.  P X X X X X X X X X S X x.+  .  d 1 i w > . '   d . O 7         ",
"      = o . 0 5 x x y   y x e   V X U X X X X X S g g g g g g g S X X X X X X X U X u.- c +  .  e f x   Z . ~   ^ . 7 .         ",
"      1 < . 0       5 y 5       V X U X X X X X X X X X X X X X X X X X X X X X U X j.+ c - N   5 e y   d . O.  d . O 7         ",
"      @ % . 0   e   L K l.  5   V X X X X X X X X X X X X X X X X X X X X X X X U X u.+  .5 j   6.k B k C y f   d . % $         ",
"      4 4 * Z   y   C ) L   e   P X g g S X X X X X X X X X X X X X X X X X X X S X x.+ N   e   E p k p C   y   Z . < .         ",
"      . B 5 f   L k B k B k E   l l l   N.X X X X X X X X X X X X X X X X X X X u.u z +  .  l.k B k k k q k C   d . o =         ",
"      . ^   y   C O.9 9 9 O.L   e   e f P X g g U X X X X X X X U g g g g g g X G.+ c - #.  E p 9 9 9 9 9 p d   Z . 2 *         ",
"      . 0   C q ' n ( ( ( n ) q L   q . a   X.  V X X X X X X X N.5 X.l l l >.u c + v.  E k B q ) n ( n ~ 9 C   Z . % &         ",
"      . 0   C K ~ { n { n { ' K L   9 . q   x f P X g S S S g X P j j j j   Q + c + N   E p 9 k ' { n { w.K d   d : < 8         ",
"      6 0   C 9 ~ n m . s n ' 9 L   4.2.V.L.w * B 5 X.l l l l X.>.u z z z c G 5 b b j   E 9 ) ( F 1 @ 1 w ( ~ B d   a .         ",
"      . 0   C 9 ~ n w . s n ' K L   G + 7.. % . 9   f y y y f y R 2.2.2.2.2.#.y e 5 5   E 9 ) n s . * . w n w.K d   d .         ",
"      . 0   C p 9 9 w.} ~ 9 9 p L   N + U.,.,.2.V.M.i i i i i i = 8.8.8.8.8.8.I.P.u G   E p 9 9 ~ } { } w.9 9 p d   d .         ",
"      1 0   C 9 q q ~ { ' q k p L   G + c c c c 7.6 & : : : : : : * * * * * 3 6 B.+ #.  E 9 q q ) n ( n ~ q k 9 d   ^ .         ",
"      . w w 0   C p 9 p 9 9 k p L   j b b b b b f r.H H H H H H H H H H H H H r.W j d o p   L p 9 p K p 9 p d   d = i 7         ",
"      % o . a   C K q q q k q K L   y e e y e y e   5     5     5   5     5     y   0 . O.  E K q q q q q K C   ^ . O @         ",
"      < @ & m = 0   x f f f x   q i m s s m s m m s w m s w s m m s m m s w s s w F i * w = p   x f f f x   d w i % > 1         ",
"      . > 2 . . 0   e 5 5 5 y   O.. 7 . . % . & @ . % 6 . > . : O . o * . > . . % . o < . . )   e 5 5 5 y   ^ . 8 * & =         ",
"      4 3 * 8 1 w F w F s w F m i < * 2 , * 4 @ 3 8 * % < : 7 $ * 8 & O 4 : 2 , * 4 @ * 4 1 i F w F s w F m i < : > % 6         ",
"      O o o O O * 1 : : : 1 : 1 & O o O O o O o o O o o O o O o o O o o O o O O o O o o O O 3 1 : : : 1 : 1 * O o O O o         ",
"      . % , . 7 o * = * $ 4 1 7 % 6 8 * & 4 6 % , . 7 @ * 8 1 o < . 2 $ 6 4 * & 4 6 % , . 7 o * = * $ 4 1 7 % 6 8 * & 8         "
};
