/* XPM */
static char *ca712ff16414497ae797bf11b509078a4fHkmCWBcS226HmR[] = {
/* columns rows colors chars-per-pixel */
"64 64 31 1 ",
"  c black",
". c white",
"X c red",
"o c #FBCC9D",
"O c #1A1611",
"+ c #1B1B1B",
"@ c #DEB58B",
"# c #1D0000",
"$ c #FF1919",
"% c #E20000",
"& c #FF1D1D",
"* c #FFE6E6",
"= c #D1C7C7",
"- c #FFC7C7",
"; c #FFE3E3",
": c #FF0303",
"> c #E3E4E4",
", c #FFFCFC",
"< c #37322C",
"1 c #FF3939",
"2 c #040404",
"3 c #C39E79",
"4 c #010202",
"5 c #E7E7E7",
"6 c #FFE1E1",
"7 c #E1E1E1",
"8 c #E31919",
"9 c #351714",
"0 c #C80000",
"q c #E60202",
"w c #FFE8E8",
/* pixels */
"                                                                ",
"                                                                ",
"                                                                ",
"                                                                ",
"                                                                ",
"                                                                ",
"                                                                ",
"                                                                ",
"                                                                ",
"                                                                ",
"                                                                ",
"                                                                ",
"                                                                ",
"                                                                ",
"                                                                ",
"                                                                ",
"                                                                ",
"                                                                ",
"                                                                ",
"                                                                ",
"                                                                ",
"                                                                ",
"                                                                ",
"                                                                ",
"                                                                ",
"                                                                ",
"                                                                ",
"                                                                ",
"                                                                ",
"                          ########++++2                         ",
"                         #0%%%%%%8=>>=+                         ",
"                     2+++9qXXXXXX&;..5<+++2                     ",
"                     +=>>=$XXXXXX&;..,>7>=+                     ",
"                   2+<5.w-$XXXXXX$-*,....5<+2                   ",
"                   +=5.*1$:XXXXXX:$1*....,5=+                   ",
"                   +>.*-$X$&&&&$:XX$-*,....>+                   ",
"                   +>w1$X$-;66;-$XX:$1*....>+                   ",
"                  #9=-$X$1*....*1$:XX$-;66;=9#                  ",
"                 #0q$$:$-*,....,*-$XX:$&&&&$q0#                 ",
"                 #%XXXX&;........;&XXXX:$&&$:%#                 ",
"                 #%XXXX&6........6&XXXX$-;;-$%#                 ",
"                 #8$:XX&6........6&XX:$1*..*18#                 ",
"                 +=-$XX&;........;&XX$-*,..,*=+                 ",
"                 +>w1$:$-*,....,*-$XX&;......>+                 ",
"                 +7,*-$:$1*....*1$:XX&;......>+                 ",
"                 +7..;&XX$-;66;-$XXXX$-*,..,*=+                 ",
"                 +7..;&XX:$&&&&$:XXXX:$1*..*18#                 ",
"                 +7,*-$Xq%%%%%%%%%%%%%%8-;;-$%#                 ",
"                 +>w1$:q################8&&$:%#                 ",
"                 +==8%%09OOO44OOOO44OOO90%%%%0#                 ",
"                 4++###93@@3OO3@@3OO3@@39#####                  ",
"               2++4  4O<@oo@OO@oo@OO@oo@<O4                     ",
"               +==+  O3@ooo@OO@oo@OO@ooo@3O                     ",
"               +>5<+4O@oooo@<<@oo@<<@oooo@O        2++          ",
"               +>.5=+O@ooooo@@oooo@@ooooo@O        +=>          ",
"               +=5.>+O3@oooooooooooooooo@3O      2+<5.          ",
"               2+<5>+ O<@oooooooooooooo@<O4      +=5,.          ",
"                 +==+  O3@@@@@@@@@@@@@@3O        +=>77          ",
"                 2++2  4OOOOOOOOOOOOOOOO4        2++++          ",
"                                                                ",
"                                                                ",
"                                                                ",
"                                                                ",
"                                                                "
};
