/* XPM */
static char *_e2a754fbb134800a10399d55e9aefb4hKnbLw5v2fOsbyiG[] = {
/* columns rows colors chars-per-pixel */
"64 64 17 1 ",
"  c black",
". c #E45E10",
"X c #F2D3B2",
"o c #1A0B02",
"O c #C9530D",
"+ c #E66C23",
"@ c #E65F10",
"# c #F0D1B1",
"$ c #E45D0E",
"% c #EFC29C",
"& c #201A15",
"* c #D4B79B",
"= c #F0C49E",
"- c #CEAA8A",
"; c #CC601F",
": c #B34A0D",
"> c #321504",
/* pixels */
"..$+%#############################X*&  oO@$+%##############%+$..",
"..$+%#############################X*&  oO@$+%##############%+$..",
"$$$+=#############################X*&  oO@$+=##############=+@@@",
"++++%=%%%%%%%%%%%%%%%%%%%%%%%%%%%%=-&  o;+++%=%%%%%%%%%%%%%*;OOO",
"%%=%+++++++++++++++++++++++++++++++;o  &-==%+++++++++++++++;>ooo",
"###=+$$$$$$$$$$$$$$$$$$$$$$$$$$$$$@Oo  &*X#=+$$$$$$$$$$$$$@Oo   ",
"###%+$............................@Oo  &*X#%+$............@Oo   ",
"###%+$............................@Oo  &*X#%+$............@Oo   ",
"###%+$............................@Oo  &*X#%+$............@Oo   ",
"###%+$............................@Oo  &*X#%+$............@Oo   ",
"###%+$............................@Oo  &*X#%+$............@Oo   ",
"###%+$............................@Oo  &*X#%+$............@Oo   ",
"###%+$............................@Oo  &*X#%+$............@Oo   ",
"###%+$............................@Oo  &*X#%+$............@Oo   ",
"###%+$............................@Oo  &*X#%+@@@..........@Oo   ",
"###%+$............................@Oo  &*X#%;OOO$.........@Oo   ",
"###%+$............................@Oo  &*XX*&oo>O@........@Oo   ",
"###%+$............................@Oo  &*XX*&  oO@........@Oo   ",
"###%+$............................@Oo  &*XX*&  oO@@@@@@@@@@Oo   ",
"###%+$............................@Oo  &-==-&  o:OOOOOOOOOO:>ooo",
"###%+$............................@Oo  o;++;o   ooooooooooo>:OOO",
"###%+$............................@Oo  oO@@Oo              oO@@@",
"###%+$............................@Oo  oO@@Oo              oO@@@",
"###%+$............................@Oo  o;++;&&&&&&&&&&&&&&&&:OOO",
"###%+$............................@Oo  &-=%%***************-&ooo",
"###%+$............................@Oo  &*X##XXXXXXXXXXXXXXX*&   ",
"###%+$............................@Oo  &*X################X*&   ",
"###%+$............................@Oo  &*X##=%%%%%%%%%%%%%=-&   ",
"###%+$............................@Oo  &*X#=+++++++++++++++;o   ",
"###%+$............................@Oo  &*X#%+$$$$$$$$$$$$$@Oo   ",
"###%+$............................@Oo  &*X#%+$............@Oo   ",
"###%+$............................@Oo  &*X#%+$............@Oo   ",
"###%+$............................@Oo  &*X#%+$............@Oo   ",
"###%+$............................@Oo  &*X#%+$............@Oo   ",
"###%+$............................@Oo  &*X#%+$............@Oo   ",
"###%+$............................@Oo  &*X#%+$............@Oo   ",
"###%+$............................@Oo  &*X#%+$............@Oo   ",
"###%+$............................@Oo  &*X#%+$............@Oo   ",
"XXX=+@@@........................@@@Oo  &*X#=+$............@Oo   ",
"***-;OOO$......................$OOO:&&&&-==%+$............@Oo   ",
"&&&&ooo>O@....................@O>oo&-**-++++..............@Oo   ",
"       oO@....................@Oo  &*XX=+$$$..............@Oo   ",
"       oO@@@@@@@..............@Oo  &*X#%+$................@Oo   ",
"&&&&&&&&:OOOOOOO$.............@Oo  &*X#%+$................@Oo   ",
"*******-&oooooo>O@............@Oo  &*X#%+$................@Oo   ",
"XXXXXXX*&      oO@............@Oo  &*X#%+$................@Oo   ",
"######X*&      oO@@@@@@@@@@@@@@Oo  &*X#=+$................@Oo   ",
"####=%=-&&&&&&&&:OOOOOOOOOOOOOO:&&&&-==%+$................@Oo   ",
"###%++++*******-&oooooooooooooo&-**-++++..................@Oo   ",
"###%+$$+=XXXXXX*&              &*XX=+$$$..................@Oo   ",
"###%+$$+=#####X*&              &*X#%+$....................@Oo   ",
"###%+$$+%=%%%%=-&&&&&&&&&&&&   &*X#%+$....................@Oo   ",
"###%+$.@++++++++***********-&  &*X#%+$....................@Oo   ",
"###%+$..$$$$$$$+=XXXXXXXXXX*&  &*X#%+$....................@Oo   ",
"###%+$........$+=#########X*&  &*X#%+$..................@@@Oo   ",
"###%+$........$+%=%%%%%%%%=-&  &*X#%+$.................$OOO:o   ",
"###%+$.........@+++++++++++;o  &*X#%+$................@O>ooo    ",
"###%+$..........$$$$$$$$$$@Oo  &*X#%+$................@Oo       ",
"###=+@@@@@@@@@@@@@@@@@@@@@@Oo  &*X#%+@@@@@@@@@@@@@@@@@@Oo       ",
"%%%*;OOOOOOOOOOOOOOOOOOOOOO:>oo&*X#%;OOOOOOOOOOOOOOOOOO:o   oooo",
"+++;>oooooooooooooooooooooo>:OO;%#X*&ooooooooooooooooooo   o:OOO",
"$$@Oo                      oO@@+%#X*&                      oO@@@",
"..@Oo                      oO@$+%#X*&                      oO@..",
"..@Oo                      oO@$+%#X*&                      oO@.."
};
